<svg width="16" height="16" viewBox="0 0 16 16" fill="none" xmlns="http://www.w3.org/2000/svg">
<path d="M15.6964 4.99072L8.38391 0.115723C8.13431 -0.0378705 7.86794 -0.0392767 7.61606 0.115723L0.303562 4.99072C0.116062 5.11569 0 5.33894 0 5.56213V10.4371C0 10.6603 0.116063 10.8835 0.303594 11.0085L7.61609 15.8842C7.86569 16.0378 8.13206 16.0392 8.38394 15.8842L15.6964 11.0085C15.8839 10.8836 16 10.6603 16 10.4371V5.56213C16 5.33894 15.8839 5.11569 15.6964 4.99072ZM8.6875 1.97282L14.0714 5.56213L11.6697 7.16929L8.6875 5.17819V1.97282ZM7.3125 1.97282V5.17819L4.33034 7.16929L1.92856 5.56213L7.3125 1.97282ZM1.375 6.84785L3.09822 7.99963L1.375 9.15141V6.84785ZM7.3125 14.0264L1.92856 10.4371L4.33034 8.82997L7.3125 10.8211V14.0264ZM8 9.62463L5.57141 7.99963L8 6.37463L10.4286 7.99963L8 9.62463ZM8.6875 14.0264V10.8211L11.6697 8.82997L14.0714 10.4371L8.6875 14.0264ZM14.625 9.15141L12.9018 7.99963L14.625 6.84785V9.15141Z" fill="white"/>
</svg>
