<svg xmlns="http://www.w3.org/2000/svg" width="868" height="796" fill="none" viewBox="0 0 868 796">
  <g filter="url(#a)">
    <path fill="url(#b)" fill-opacity=".6" d="M698.622 74.966c68.356 48.618 118.07 129.006 137.668 217.578 20.077 89.052 10.039 186.77-39.675 250.791-49.236 63.541-138.625 93.385-224.667 118.898-85.565 25.512-168.262 47.655-233.272 23.105-65.01-25.031-112.334-95.791-156.789-170.403-43.978-74.131-85.087-152.112-67.879-214.208 17.209-62.096 91.779-108.789 158.702-157.407 66.922-49.1 125.24-100.124 198.376-116.972 72.659-16.847 159.657 0 227.536 48.618Z" shape-rendering="crispEdges"/>
  </g>
  <path stroke="#fff" stroke-width="3" d="m74 317 41.5 41.5L157 317l41.5 41.5"/>
  <path fill="#F1F1F1" d="M100.681 743.168c-14.656 10.931-18.81 30.164-18.81 30.164s19.608 1.51 34.264-9.421c14.656-10.931 18.81-30.163 18.81-30.163s-19.608-1.511-34.264 9.42Z"/>
  <path fill="#F1F1F1" d="M106.785 748.3c-7.043 16.877-24.684 25.574-24.684 25.574s-6.221-18.666.823-35.543c7.043-16.877 24.684-25.574 24.684-25.574s6.221 18.666-.823 35.543Z"/>
  <path fill="#CACACA" d="M528.449 699.511a146.413 146.413 0 0 1-1.227-31.712l1.227-17.516c-6.76 13.459-5.233 31.173 0 49.228Zm5.272 2.93a107.644 107.644 0 0 1-.59-18.876l.59-10.426c-3.252 8.011-2.517 18.555 0 29.302Z"/>
  <path fill="#F2F2F2" d="M557.154 715.336v5.861a1.765 1.765 0 0 1-1.757 1.758h-2.929a.592.592 0 0 0-.415.171.609.609 0 0 0-.127.19.601.601 0 0 0-.044.225v48.057a1.765 1.765 0 0 1-1.757 1.758h-35.731a1.759 1.759 0 0 1-1.757-1.758v-48.057a.586.586 0 0 0-.586-.586h-3.514a1.762 1.762 0 0 1-1.758-1.758v-5.861a1.767 1.767 0 0 1 .514-1.244 1.763 1.763 0 0 1 1.244-.514h46.86a1.762 1.762 0 0 1 1.757 1.758Z"/>
  <path fill="#E6E6E6" d="M551.935 724.186h-39.246v1.758h39.246v-1.758Zm-.053 25.871c-13.132 5.437-26.408 5.497-39.831 0V737.67a62.526 62.526 0 0 1 39.831 0v12.387Z"/>
  <path fill="#6C63FF" d="M446.07 644.134c-1.825-10.987-3.708-22.185-8.811-32.083-3.355-6.483-8.679-12.661-15.857-13.943a15.339 15.339 0 0 1-4.129-.956c-2.103-1.014-30.366-17.156-34.858-19.968-3.857-2.414-9.946-6.883-13.016-6.883-3.089-.068-14.932 2.69-61.156-.925 0 0-12.698 5.008-22.524 11.08-.149-.098-47.976 25.598-49.773 25.531-3.403-.144-6.566 2.036-8.516 4.781-1.951 2.745-2.866 6.143-3.824 9.429 10.447 23.275 20.005 46.581 30.452 69.856.489.877.749 1.863.756 2.867a7.001 7.001 0 0 1-1.3 2.867c-5.123 8.234-4.96 18.59-4.401 28.268.56 9.678 1.253 19.9-3.07 28.574-1.176 2.382-2.705 4.562-3.823 6.943-2.619 5.394-3.565 22.645-2.036 28.44l191.639 5.493c-4.12-11.332 14.247-149.371 14.247-149.371Z"/>
  <path fill="#FBBEBE" d="M207.041 691.086a33.896 33.896 0 0 0-.114 8.348l2.746 39.466c.258 3.72.512 7.431.861 11.141.659 7.201 1.644 14.344 2.865 21.478a3.824 3.824 0 0 0 3.919 3.719c12.091 2.56 24.583 2.458 36.922 1.76 18.83-1.051 67.003-3.04 69.946-6.866 2.943-3.825 1.228-10.012-2.61-13.105-3.837-3.093-67.408-10.634-67.408-10.634.621-4.925 2.494-9.563 4.272-14.239 3.193-8.293 6.175-16.859 6.232-25.743.058-8.884-3.288-18.225-10.562-23.315-5.983-4.178-13.687-4.953-20.978-4.781-5.305.152-14.472-1.119-19.317.956-3.835 1.69-6.057 8.058-6.774 11.815Z"/>
  <path fill="#6C63FF" d="M223.054 620.905a9.91 9.91 0 0 0-2.122 3.396 160.595 160.595 0 0 0-13.476 55.1 5.51 5.51 0 0 1-.621 2.668 11.702 11.702 0 0 1-1.405 1.521 5.271 5.271 0 0 0-1.225 3.85 5.295 5.295 0 0 0 1.856 3.589c.087.073.176.143.267.211 1.577-2.969 5.352-3.94 8.708-4.198 16.066-1.271 31.761 6.207 47.875 5.643-1.137-3.931-2.772-7.708-3.699-11.686-4.101-17.662 6.127-36.893-.143-53.905-1.253-3.405-3.346-6.752-6.643-8.244a17.684 17.684 0 0 0-4.253-1.126c-4.072-.736-12.178-3.882-16.115-2.62-1.453.469-2.026 1.836-3.23 2.662-1.83 1.169-4.258 1.599-5.774 3.139Z"/>
  <path fill="#FBBEBE" d="M446.185 679.271c-4.845-2.075-14.011-.804-19.316-.956-7.292-.172-14.995.603-20.979 4.781-7.274 5.09-10.619 14.431-10.562 23.315.057 8.884 3.039 17.45 6.232 25.743 1.778 4.676 3.652 9.314 4.273 14.239 0 0-63.572 7.541-67.409 10.634-3.838 3.093-5.553 9.28-2.61 13.105 2.943 3.826 94.777 7.666 106.868 5.107a3.824 3.824 0 0 0 3.919-3.72c1.222-7.134 2.206-14.277 2.865-21.478.349-3.71.603-7.421.861-11.141l2.746-39.466a33.847 33.847 0 0 0-.114-8.348c-.716-3.757-2.939-10.125-6.774-11.815Z"/>
  <path fill="#6C63FF" d="M431.172 617.766c-1.204-.826-1.777-2.193-3.23-2.662-3.937-1.262-12.043 1.884-16.115 2.62a17.684 17.684 0 0 0-4.253 1.126c-3.297 1.492-5.39 4.839-6.642 8.244-6.271 17.012 3.957 36.243-.144 53.905-.927 3.978-2.562 7.755-3.699 11.686 16.115.564 31.809-6.914 47.875-5.643 3.356.258 7.131 1.229 8.708 4.198a5.283 5.283 0 0 0 1.893-5.847 5.271 5.271 0 0 0-.995-1.803 11.702 11.702 0 0 1-1.405-1.521 5.51 5.51 0 0 1-.621-2.668 160.573 160.573 0 0 0-13.476-55.1 9.91 9.91 0 0 0-2.122-3.396c-1.516-1.54-3.944-1.97-5.774-3.139Z"/>
  <path fill="#FBBEBE" d="M316.184 777.123c7.913 0 14.327-6.417 14.327-14.334 0-7.916-6.414-14.334-14.327-14.334-7.912 0-14.327 6.418-14.327 14.334 0 7.917 6.415 14.334 14.327 14.334Zm31.725 0c7.912 0 14.327-6.417 14.327-14.334 0-7.916-6.415-14.334-14.327-14.334-7.913 0-14.327 6.418-14.327 14.334 0 7.917 6.414 14.334 14.327 14.334Z"/>
  <path fill="#3F3D56" d="M436.345 795.089H239.516a8.68 8.68 0 0 1-8.668-8.672V666.945a8.682 8.682 0 0 1 8.668-8.672h196.829a8.676 8.676 0 0 1 6.126 2.543 8.686 8.686 0 0 1 2.542 6.129v119.472a8.684 8.684 0 0 1-8.668 8.672Z"/>
  <path fill="#fff" d="M337.453 732.419a5.735 5.735 0 0 0 5.734-5.737 5.736 5.736 0 0 0-5.734-5.738 5.736 5.736 0 0 0-5.735 5.738 5.735 5.735 0 0 0 5.735 5.737Z"/>
  <path fill="#F1F1F1" d="M660 770.991H0v20.292h39.038V796h581.939v-4.717H660v-20.292Z"/>
  <path stroke="#fff" stroke-width="3" d="m619 614 40.5 40.5M619 654l40-40"/>
  <path fill="#755353" d="M325.674 558.279c28.575 0 51.738-23.164 51.738-51.738 0-28.574-23.163-51.738-51.738-51.738-28.574 0-51.737 23.164-51.737 51.738 0 28.574 23.163 51.738 51.737 51.738Z"/>
  <path fill="#FDB797" d="M325.675 564.372c26.244 0 47.518-21.274 47.518-47.518 0-26.243-21.274-47.518-47.518-47.518-26.243 0-47.518 21.275-47.518 47.518 0 26.244 21.275 47.518 47.518 47.518Z"/>
  <path fill="#000" d="M291.827 473.632s20.027 40.65 76.518 17.043l-13.152-20.623-23.315-8.368-40.051 11.948Z" opacity=".1"/>
  <path fill="#755353" d="M291.827 473.036s20.027 40.649 76.518 17.036l-13.152-20.623-23.315-8.367-40.051 11.954Z"/>
  <path fill="#755353" d="M291.651 470.281a27.448 27.448 0 0 1 6.805-11.066c9.347-9.241 24.671-11.189 32.53-21.725 1.883 2.924.427 7.421-2.823 8.676 7.53-.051 16.255-.71 20.513-6.903a14.089 14.089 0 0 1-2.375 14.872c6.673.314 13.805 4.832 14.225 11.499.289 4.443-2.51 8.647-6.146 11.195-3.637 2.547-8.067 3.718-12.412 4.675-12.688 2.801-58.597 14.526-50.317-11.223Z"/>
  <path fill="#FDB797" d="M278.138 525.1c2.441 0 4.42-3.712 4.42-8.29 0-4.578-1.979-8.289-4.42-8.289-2.442 0-4.421 3.711-4.421 8.289 0 4.578 1.979 8.29 4.421 8.29Zm95.048 0c2.442 0 4.421-3.712 4.421-8.29 0-4.578-1.979-8.289-4.421-8.289-2.441 0-4.42 3.711-4.42 8.289 0 4.578 1.979 8.29 4.42 8.29Z"/>
  <path fill="#6C63FF" d="M283.482 541.983c-10.207 0-18.482-8.951-18.482-19.993v-9.997c0-11.042 8.274-19.993 18.482-19.993v49.983Zm85.501-57.016c10.208 0 18.482 8.952 18.482 19.993v9.997c0 11.042-8.274 19.993-18.482 19.993v-49.983Z"/>
  <path fill="#6C63FF" d="M378.558 502.918h-2.194c0-30.354-22.637-55.049-50.462-55.049-27.825 0-50.462 24.695-50.462 55.049h-2.194c0-31.674 23.621-57.442 52.656-57.442 29.034 0 52.656 25.768 52.656 57.442Z"/>
  <defs>
    <linearGradient id="b" x1="279.5" x2="625.5" y1="817.5" y2="254" gradientUnits="userSpaceOnUse">
      <stop stop-color="#7048E8" stop-opacity=".54"/>
      <stop offset="1" stop-color="#7048E8"/>
    </linearGradient>
    <filter id="a" width="776" height="716" x="92" y="0" color-interpolation-filters="sRGB" filterUnits="userSpaceOnUse">
      <feFlood flood-opacity="0" result="BackgroundImageFix"/>
      <feColorMatrix in="SourceAlpha" result="hardAlpha" values="0 0 0 0 0 0 0 0 0 0 0 0 0 0 0 0 0 0 127 0"/>
      <feOffset dx="2"/>
      <feGaussianBlur stdDeviation="10"/>
      <feComposite in2="hardAlpha" operator="out"/>
      <feColorMatrix values="0 0 0 0 0 0 0 0 0 0 0 0 0 0 0 0 0 0 0.25 0"/>
      <feBlend in2="BackgroundImageFix" result="effect1_dropShadow_407_100"/>
      <feBlend in="SourceGraphic" in2="effect1_dropShadow_407_100" result="shape"/>
    </filter>
  </defs>
</svg>
