<svg width="1440" height="137" viewBox="0 0 1440 137" fill="none" xmlns="http://www.w3.org/2000/svg">
<path d="M1416.03 64.2141C1414.26 64.5138 1412.42 64.8251 1410.53 65.1463C1356.97 74.2341 1256.58 91.2664 1156.19 77.8495M1416.03 64.2141L532.585 18.7059M1416.03 64.2141L1467.5 55.1832L1416.03 64.2141ZM1156.19 77.8495C1104.23 71.1597 1052.26 56.3098 1000.29 41.46C948.325 26.6102 896.358 11.7604 844.39 5.07052C764.776 -5.57005 685.162 2.94097 605.547 11.452C581.227 14.052 556.906 16.6519 532.585 18.7059M1156.19 77.8495L1156.13 78.3451C1156.13 78.3452 1156.13 78.3453 1156.13 78.3453C1156.13 78.3454 1156.13 78.3454 1156.13 78.3455L1156.19 77.8495ZM532.585 18.7059L532.627 19.2042C532.628 19.2041 532.628 19.2041 532.629 19.204L532.585 18.7059Z" fill="#343A40" stroke="black"/>
</svg>
