<svg width="272" height="217" viewBox="0 0 272 217" fill="none" xmlns="http://www.w3.org/2000/svg">
<path d="M229.232 207.769C230.303 207.835 230.895 206.503 230.084 205.728L230.004 205.407C230.014 205.381 230.025 205.356 230.035 205.33C230.674 203.805 232.433 203.083 233.961 203.715C238.789 205.712 233.691 210.303 234.074 213.41C234.209 214.482 238.406 214.541 238.168 215.593C240.4 210.71 241.574 205.379 241.572 200.017C241.571 198.67 241.497 197.323 241.346 195.979C241.222 194.88 241.051 193.788 240.829 192.706C239.632 186.856 237.041 181.284 233.306 176.631C231.511 175.65 232.606 174.115 231.701 172.275C231.376 171.612 228.478 171.597 228.357 170.87C228.487 170.887 230.361 168.94 229.742 167.977C229.334 167.343 229.461 166.536 229.984 165.995C230.036 165.942 230.084 165.886 230.128 165.825C231.674 163.727 233.804 164.093 234.917 166.943C237.293 168.142 237.317 170.132 235.86 172.046C234.933 173.264 234.806 174.911 233.993 176.215C234.076 176.322 234.164 176.426 234.247 176.533C235.783 178.503 237.111 180.621 238.231 182.845C237.914 180.373 238.38 177.393 239.176 175.473C240.088 173.269 241.804 171.415 243.307 169.508C245.102 167.232 248.756 168.265 249.073 171.148C249.076 171.175 249.079 171.203 249.082 171.231C248.86 171.356 248.642 171.49 248.429 171.631C247.217 172.434 247.637 174.315 249.074 174.536L249.107 174.541C249.027 175.342 246.187 177.865 245.986 178.646C247.907 186.069 246.47 187.049 240.56 187.173L240.25 187.616C240.81 189.227 241.261 190.877 241.599 192.548C241.918 194.099 242.139 195.668 242.264 197.242C242.419 199.229 242.406 201.227 242.239 203.21L242.249 203.14C242.674 200.955 243.858 198.914 245.579 197.499C248.142 195.391 251.764 194.613 254.529 192.918C255.861 192.102 257.567 193.155 257.335 194.7L257.324 194.774C256.912 194.942 256.511 195.136 256.122 195.354C255.9 195.48 255.682 195.614 255.469 195.755C254.256 196.558 254.677 198.44 256.114 198.66L256.147 198.665C256.17 198.668 256.19 198.672 256.214 198.675C255.508 200.354 248.782 202.723 247.55 204.067C246.353 210.551 246.941 210.358 241.427 208.472H241.424C240.822 211.099 239.942 213.666 238.811 216.112L229.469 216.116C229.436 216.012 229.406 215.905 229.375 215.801C230.239 215.854 231.11 215.803 231.96 215.646C231.267 214.795 230.574 213.937 229.88 213.086C229.863 213.07 229.85 213.053 229.837 213.036L229.826 213.023L228.864 209.855C228.94 209.152 229.064 208.455 229.232 207.769L229.232 207.768V207.769V207.769Z" fill="#F2F2F2"/>
<path d="M130.51 216.04L47.8438 216.068C43.6908 216.07 39.9708 213.922 37.893 210.324C36.8541 208.524 36.3345 206.55 36.3338 204.576C36.3331 202.602 36.8516 200.627 37.8891 198.827L79.1958 123.575C81.2712 119.975 84.9898 117.825 89.1427 117.824C93.2957 117.822 97.0157 119.97 99.0937 123.568L140.458 198.801C141.494 200.596 142.012 202.567 142.012 204.54C142.012 206.514 141.494 208.488 140.456 210.288C138.381 213.888 134.663 216.038 130.51 216.04H130.51H130.51ZM37.3729 204.574C37.3728 206.371 46.4947 202.499 47.4397 204.136C49.33 207.41 44.0651 215.032 47.8434 215.031C47.8434 215.031 137.67 213.045 139.558 209.77C140.502 208.132 140.974 206.336 140.973 204.54C140.973 202.744 140.5 200.948 139.554 199.311L98.1904 124.078C96.3055 120.814 92.9214 118.86 89.1431 118.861C85.3666 118.863 37.373 202.777 37.3729 204.574H37.3729V204.574Z" fill="#3F3D56"/>
<path d="M131.428 215.002C130.392 217.077 178.922 216.439 179.496 216.439C179.496 216.439 193.137 216.138 193.423 215.64C193.567 215.392 193.638 215.119 193.638 214.846C193.638 214.573 193.566 214.301 193.423 214.052L187.141 202.628C186.855 202.132 186.341 201.835 185.767 201.835C185.744 201.836 185.708 201.857 185.663 201.897C177.284 209.391 166.957 214.345 155.72 214.512C143.772 214.69 131.493 214.87 131.428 215.002H131.428V215.002Z" fill="#3F3D56"/>
<path d="M209.379 213.386L204.69 213.387L202.453 195.289L209.373 195.287L209.379 213.386Z" fill="#A0616A"/>
<path d="M193.314 213.285C193.168 213.531 193.091 214.326 193.091 214.612C193.091 215.491 193.804 216.204 194.683 216.204L209.204 216.199C209.804 216.199 210.29 215.712 210.29 215.112L210.289 214.507C210.289 214.507 211.007 212.688 209.527 210.448C209.527 210.448 207.69 212.203 204.942 209.456L204.132 207.987L198.27 212.281L195.021 212.682C194.31 212.77 193.679 212.669 193.314 213.285H193.314V213.285Z" fill="#2F2E41"/>
<path d="M191.4 197.906L186.958 199.41L179.047 182.982L185.602 180.762L191.4 197.906Z" fill="#A0616A"/>
<path d="M176.148 202.96C176.089 203.24 176.27 204.017 176.362 204.288C176.644 205.121 177.547 205.568 178.38 205.286L192.135 200.627C192.702 200.434 193.007 199.818 192.815 199.249L192.621 198.676C192.621 198.676 192.719 196.723 190.6 195.075C190.6 195.075 189.421 197.327 185.939 195.605L184.701 194.473L180.522 200.419L177.572 201.841C176.927 202.152 176.297 202.258 176.148 202.96L176.148 202.96V202.96Z" fill="#2F2E41"/>
<path d="M184.157 92.9123L175.062 123.055L164.325 150.168L181.323 188.889L187.626 186.083L180.084 150.513L195.9 126.377L203.28 201.724L209.584 201.371L218.132 110.424L219.351 90.6221L184.157 92.9123Z" fill="#2F2E41"/>
<path d="M211.625 26.1399L198.318 28.5978L197.269 34.556L189.216 38.4138L185.028 82.223C185.028 82.223 178.028 91.3374 183.632 94.1391L219.351 90.6221C219.351 90.6221 221.1 84.1421 219.349 83.5274C217.598 82.9126 217.592 67.4344 217.592 67.4344L225.636 35.5975L213.728 31.3961L211.625 26.1399Z" fill="#E6E6E6"/>
<path d="M203.776 26.0249C209.71 26.0249 214.521 21.2104 214.521 15.2714C214.521 9.3324 209.71 4.51788 203.776 4.51788C197.841 4.51788 193.03 9.3324 193.03 15.2714C193.03 21.2104 197.841 26.0249 203.776 26.0249Z" fill="#A0616A"/>
<path d="M210.892 16.8674C210.034 17.3372 210.848 19.5801 210.312 19.774C209.692 19.9981 207.434 17.4253 207.406 14.5436C207.397 13.6714 207.598 13.2526 207.405 12.2185C207.153 10.8658 206.378 9.27037 205.661 9.31273C205.237 9.33783 204.822 9.93904 204.791 10.4756C204.747 11.2275 205.477 11.5235 205.372 11.9286C205.172 12.7001 202.107 13.2327 201.016 11.9301C200.16 10.9088 200.816 9.11571 200.434 9.0239C200.152 8.95622 199.849 9.94343 198.692 11.059C198.256 11.4792 197.607 12.1043 197.24 11.9314C196.709 11.6815 197.095 9.92037 196.949 9.89702C196.828 9.87768 196.752 11.1155 196.078 12.2224C195.213 13.6445 193.427 14.7405 192.594 14.2581C192.084 13.9625 192.043 13.1395 192.013 12.5145C191.948 11.1977 190.036 8.16874 190.531 6.76008C191.537 3.89302 193.263 5.91402 194.043 4.95722C195.099 3.66193 196.047 4.35834 197.818 2.92146C199.548 1.51776 199.563 0.106934 200.721 0.014089C201.764 -0.0695212 202.135 1.04406 203.335 0.885091C204.352 0.750425 204.573 -0.113272 205.368 0.0124755C206.096 0.127598 206.144 0.888468 207.111 1.17442C207.728 1.35697 207.864 1.09274 208.563 1.17391C210.017 1.34281 210.994 2.66849 211.177 2.91682C211.883 3.87415 211.609 4.27786 212.34 5.24151C212.97 6.07252 214.366 5.71963 214.891 6.13469C216.607 7.49088 217.344 9.99197 217.359 12.8426C217.369 14.8364 217.11 15.8438 216.53 18.3604C216.09 20.2714 214.051 22.7408 212.927 23.842C212.625 24.1376 211.779 24.9663 211.185 24.7145C210.621 24.476 210.604 23.4032 210.603 23.2615C210.601 22.7744 210.731 22.1716 211.764 20.6454C212.85 19.0423 213.281 18.8593 213.215 18.3198C213.099 17.3662 211.575 16.493 210.892 16.8674H210.892V16.8674Z" fill="#2F2E41"/>
<path d="M173.409 117.125C173.075 119.928 174.248 122.372 176.031 122.585C177.813 122.798 179.529 120.699 179.864 117.896C180.01 116.669 179.867 115.511 179.511 114.578L180.779 102.684L175.189 102.207L174.532 113.983C173.967 114.806 173.555 115.898 173.409 117.125H173.409H173.409Z" fill="#A0616A"/>
<path d="M189.478 38.1308C189.478 38.1308 186.582 38.172 184.664 41.92C183.645 43.9117 178.193 81.1558 178.193 81.1558L173.171 111.666L181.726 111.709L188.393 82.8153L194.001 66.0575L189.478 38.1308L189.478 38.1308Z" fill="#E6E6E6"/>
<path d="M213.553 112.648C212.734 115.349 213.462 117.961 215.18 118.483C216.897 119.005 218.954 117.238 219.773 114.537C220.132 113.355 220.194 112.189 220.006 111.209L223.334 99.7196L217.913 98.2716L215.208 109.751C214.507 110.462 213.912 111.465 213.553 112.648V112.648V112.648Z" fill="#A0616A"/>
<path d="M219.508 36.1253C219.508 36.1253 223.709 32.9697 227.213 37.875C230.716 42.7802 232.131 83.0828 232.131 83.0828L222.334 107.969L214.979 105.518L221.973 75.0257L209.707 51.8995L219.508 36.1253H219.508V36.1253Z" fill="#E6E6E6"/>
<path d="M113.264 199.444C134.165 199.444 151.109 182.488 151.109 161.571C151.109 140.655 134.165 123.699 113.264 123.699C92.3633 123.699 75.4197 140.655 75.4197 161.571C75.4197 182.488 92.3633 199.444 113.264 199.444Z" fill="#7149E9"/>
<path d="M113.271 184.788C115.19 184.788 116.746 183.231 116.746 181.31C116.746 179.39 115.19 177.833 113.271 177.833C111.352 177.833 109.796 179.39 109.796 181.31C109.796 183.231 111.352 184.788 113.271 184.788Z" fill="white"/>
<path d="M113.256 138.355C112.937 140.478 113.509 140.922 113.512 150.072C113.515 159.223 115.413 171.491 113.268 171.492C111.123 171.493 110.339 146.173 102.891 143.932C94.1341 141.297 114.29 131.484 113.256 138.355V138.355Z" fill="white"/>
<path d="M62.4714 180.908L59.0522 188.137C63.1857 185.171 69.6421 182.614 74.7799 181.245C69.9927 178.93 64.1351 175.2 60.6355 171.506L62.6021 179.145C39.5459 174.445 22.9888 156.745 22.9818 136.468L22.149 136.182C22.1563 157.361 38.4843 176.109 62.4714 180.908V180.908Z" fill="#3F3D56"/>
</svg>
