<svg width="61" height="48" viewBox="0 0 61 48" fill="none" xmlns="http://www.w3.org/2000/svg">
<path d="M48.1393 17.9549L47.3685 19.2992C47.0865 19.7974 46.4848 20.0042 45.949 19.8068C44.8398 19.3932 43.8245 18.801 42.9315 18.0583C42.4991 17.7011 42.3863 17.0713 42.6683 16.5825L43.4391 15.2382C42.7905 14.4862 42.2829 13.6119 41.9445 12.6625H40.3934C39.8294 12.6625 39.3405 12.2583 39.2465 11.6943C39.0585 10.5662 39.0491 9.38177 39.2465 8.20672C39.3405 7.64269 39.8294 7.22908 40.3934 7.22908H41.9445C42.2829 6.27964 42.7905 5.4054 43.4391 4.65337L42.6683 3.30911C42.3863 2.82029 42.4897 2.19047 42.9315 1.83325C43.8245 1.09062 44.8492 0.498398 45.949 0.0847813C46.4848 -0.112627 47.0865 0.0941816 47.3685 0.592402L48.1393 1.93666C49.1264 1.75805 50.1322 1.75805 51.1192 1.93666L51.8901 0.592402C52.1721 0.0941816 52.7737 -0.112627 53.3095 0.0847813C54.4188 0.498398 55.434 1.09062 56.3271 1.83325C56.7595 2.19047 56.8723 2.82029 56.5903 3.30911L55.8194 4.65337C56.4681 5.4054 56.9757 6.27964 57.3141 7.22908H58.8652C59.4292 7.22908 59.918 7.63329 60.012 8.19732C60.2 9.32536 60.2094 10.5098 60.012 11.6849C59.918 12.2489 59.4292 12.6625 58.8652 12.6625H57.3141C56.9757 13.6119 56.4681 14.4862 55.8194 15.2382L56.5903 16.5825C56.8723 17.0713 56.7689 17.7011 56.3271 18.0583C55.434 18.801 54.4094 19.3932 53.3095 19.8068C52.7737 20.0042 52.1721 19.7974 51.8901 19.2992L51.1192 17.9549C50.1416 18.1335 49.1264 18.1335 48.1393 17.9549V17.9549ZM47.1523 12.4275C50.7714 15.21 54.8982 11.0832 52.1157 7.46409C48.4965 4.67217 44.3698 8.80834 47.1523 12.4275V12.4275ZM36.3136 26.8947L39.4816 28.474C40.431 29.0192 40.8446 30.1754 40.4686 31.2095C39.632 33.4844 37.9869 35.5712 36.464 37.3949C35.7684 38.2316 34.5651 38.4384 33.6157 37.8931L30.8802 36.3139C29.3761 37.6017 27.6277 38.6264 25.7194 39.2938V42.4523C25.7194 43.5428 24.9391 44.4828 23.8675 44.6708C21.555 45.0656 19.1297 45.0844 16.7326 44.6708C15.6516 44.4828 14.8525 43.5522 14.8525 42.4523V39.2938C12.9442 38.617 11.1958 37.6017 9.69171 36.3139L6.9562 37.8837C6.01616 38.429 4.80351 38.2222 4.10788 37.3855C2.58501 35.5618 0.977547 33.475 0.140912 31.2095C-0.235104 30.1848 0.178514 29.0286 1.12795 28.474L4.25828 26.8947C3.89167 24.93 3.89167 22.9089 4.25828 20.9348L1.12795 19.3462C0.178514 18.801 -0.244504 17.6447 0.140912 16.6201C0.977547 14.3452 2.58501 12.2583 4.10788 10.4346C4.80351 9.59797 6.00676 9.39117 6.9562 9.93639L9.69171 11.5157C11.1958 10.2278 12.9442 9.20316 14.8525 8.53573V5.3678C14.8525 4.28675 15.6234 3.34672 16.695 3.15871C19.0075 2.76389 21.4422 2.74509 23.8393 3.14931C24.9203 3.33732 25.7194 4.26795 25.7194 5.3678V8.52633C27.6277 9.20316 29.3761 10.2184 30.8802 11.5063L33.6157 9.92699C34.5557 9.38177 35.7684 9.58857 36.464 10.4252C37.9869 12.2489 39.585 14.3358 40.4216 16.6107C40.7976 17.6353 40.431 18.7916 39.4816 19.3462L36.3136 20.9254C36.6802 22.8995 36.6802 24.9206 36.3136 26.8947V26.8947ZM25.2588 28.8782C30.8238 21.6399 22.5608 13.3769 15.3225 18.942C9.75751 26.1803 18.0205 34.4432 25.2588 28.8782ZM48.1393 46.0527L47.3685 47.3969C47.0865 47.8952 46.4848 48.102 45.949 47.9046C44.8398 47.4909 43.8245 46.8987 42.9315 46.1561C42.4991 45.7989 42.3863 45.169 42.6683 44.6802L43.4391 43.336C42.7905 42.5839 42.2829 41.7097 41.9445 40.7603H40.3934C39.8294 40.7603 39.3405 40.356 39.2465 39.792C39.0585 38.664 39.0491 37.4795 39.2465 36.3045C39.3405 35.7405 39.8294 35.3268 40.3934 35.3268H41.9445C42.2829 34.3774 42.7905 33.5032 43.4391 32.7511L42.6683 31.4069C42.3863 30.9181 42.4897 30.2882 42.9315 29.931C43.8245 29.1884 44.8492 28.5962 45.949 28.1825C46.4848 27.9851 47.0865 28.1919 47.3685 28.6902L48.1393 30.0344C49.1264 29.8558 50.1322 29.8558 51.1192 30.0344L51.8901 28.6902C52.1721 28.1919 52.7737 27.9851 53.3095 28.1825C54.4188 28.5962 55.434 29.1884 56.3271 29.931C56.7595 30.2882 56.8723 30.9181 56.5903 31.4069L55.8194 32.7511C56.4681 33.5032 56.9757 34.3774 57.3141 35.3268H58.8652C59.4292 35.3268 59.918 35.7311 60.012 36.2951C60.2 37.4231 60.2094 38.6076 60.012 39.7826C59.918 40.3466 59.4292 40.7603 58.8652 40.7603H57.3141C56.9757 41.7097 56.4681 42.5839 55.8194 43.336L56.5903 44.6802C56.8723 45.169 56.7689 45.7989 56.3271 46.1561C55.434 46.8987 54.4094 47.4909 53.3095 47.9046C52.7737 48.102 52.1721 47.8952 51.8901 47.3969L51.1192 46.0527C50.1416 46.2313 49.1264 46.2313 48.1393 46.0527ZM47.1523 40.5159C50.7714 43.2984 54.8982 39.1716 52.1157 35.5524C48.4965 32.7699 44.3698 36.8967 47.1523 40.5159V40.5159Z" fill="#24C3F5"/>
</svg>
