<svg width="64" height="69" viewBox="0 0 64 69" fill="none" xmlns="http://www.w3.org/2000/svg">
<g filter="url(#filter0_d_232_656)">
<path d="M29.4536 8.3208L30.8406 10.9259C31.1525 11.4066 31.4903 11.8321 31.8882 12.2284C33.0548 13.3804 34.1422 14.61 35.1429 15.9086C37.493 18.9944 39.0782 22.4213 40.2102 26.1275C40.8891 28.3915 41.2577 30.714 41.2853 33.0625C41.399 40.0835 38.9921 46.1122 34.1392 51.1226C33.3499 51.9171 32.4971 52.646 31.5894 53.3021C31.1086 53.3021 30.8812 52.9335 30.6831 52.594C30.3223 51.9646 30.0821 51.2733 29.975 50.5558C29.8045 49.7063 29.6924 48.8569 29.7476 47.9799V47.5836C29.7086 47.4992 29.2847 8.52057 29.4536 8.3208V8.3208Z" fill="#599636"/>
<path d="M29.4536 8.23459C29.3967 8.1209 29.3399 8.20698 29.2831 8.2622C29.3107 8.83063 29.1125 9.33736 28.8023 9.82134C28.4612 10.3021 28.0097 10.6708 27.5566 11.067C25.0392 13.2466 23.0578 15.8793 21.4711 18.8238C19.3597 22.7866 18.2716 27.0337 17.963 31.5049C17.8217 33.1176 18.4729 38.8085 18.9813 40.4505C20.3683 44.8096 22.8597 48.4622 26.0868 51.6325C26.8794 52.3958 27.7271 53.1039 28.6042 53.7844C28.8592 53.7844 28.8868 53.557 28.9452 53.3881C29.057 53.0267 29.1423 52.6576 29.2002 52.2837L29.7687 48.0383L29.4536 8.23459Z" fill="#6CAC48"/>
<path d="M30.8404 55.0268C30.8973 54.3772 31.2091 53.838 31.5485 53.3004C31.2075 53.1591 30.9541 52.8781 30.756 52.5647C30.5851 52.2679 30.4437 51.9551 30.3337 51.6308C29.9374 50.442 29.853 49.1947 29.7393 47.9799V47.2441C29.598 47.3578 29.5687 48.3193 29.5687 48.4622C29.4861 49.7462 29.3157 51.023 29.0588 52.2837C28.9743 52.7937 28.9175 53.302 28.604 53.7552C28.604 53.812 28.604 53.8688 28.6316 53.9533C29.1416 55.454 29.2813 56.9822 29.3673 58.5397V59.1082C29.3673 59.7871 29.3397 59.6441 29.9033 59.8715C30.1307 59.956 30.384 59.9852 30.6114 60.1541C30.7819 60.1541 30.8096 60.0128 30.8096 59.8991L30.7251 58.9653V56.3602C30.6975 55.9055 30.7819 55.454 30.8388 55.0284L30.8404 55.0268Z" fill="#C2BFBF"/>
</g>
<defs>
<filter id="filter0_d_232_656" x="-4" y="0" width="72" height="72" filterUnits="userSpaceOnUse" color-interpolation-filters="sRGB">
<feFlood flood-opacity="0" result="BackgroundImageFix"/>
<feColorMatrix in="SourceAlpha" type="matrix" values="0 0 0 0 0 0 0 0 0 0 0 0 0 0 0 0 0 0 127 0" result="hardAlpha"/>
<feOffset dy="4"/>
<feGaussianBlur stdDeviation="2"/>
<feComposite in2="hardAlpha" operator="out"/>
<feColorMatrix type="matrix" values="0 0 0 0 0 0 0 0 0 0 0 0 0 0 0 0 0 0 0.25 0"/>
<feBlend mode="normal" in2="BackgroundImageFix" result="effect1_dropShadow_232_656"/>
<feBlend mode="normal" in="SourceGraphic" in2="effect1_dropShadow_232_656" result="shape"/>
</filter>
</defs>
</svg>
