<svg width="72" height="72" viewBox="0 0 72 72" fill="none" xmlns="http://www.w3.org/2000/svg">
<g clip-path="url(#clip0_232_566)" filter="url(#filter0_d_232_566)">
<path d="M50.3465 22.2097L50.3233 22.1999C50.3098 22.1947 50.2966 22.1901 50.2849 22.1781C50.2462 22.1364 50.2289 22.0791 50.2383 22.0229L51.5267 14.1345L57.5686 20.1868L51.285 22.8641C51.2679 22.8712 51.2488 22.8747 51.23 22.8739H51.205C51.1967 22.8687 51.1884 22.8622 51.1717 22.8455C50.9378 22.5848 50.6582 22.3692 50.3466 22.2096L50.3465 22.2097ZM59.1102 21.729L65.5705 28.1985C66.9122 29.5439 67.5839 30.2149 67.829 30.9927C67.8657 31.1079 67.8956 31.223 67.919 31.3415L52.4799 24.7935C52.4716 24.79 52.4634 24.7866 52.4549 24.7837C52.3933 24.7587 52.3216 24.7303 52.3216 24.6669C52.3216 24.6034 52.3949 24.5734 52.4566 24.5484L52.4766 24.5401L59.1102 21.729ZM67.6556 33.4179C67.3223 34.0455 66.6722 34.6965 65.5722 35.7998L58.2885 43.0923L48.8681 41.1277L48.8181 41.1179C48.7347 41.1044 48.6464 41.0895 48.6464 41.0144C48.5741 40.2277 48.1787 39.5065 47.5547 39.0231C47.5164 38.9847 47.5264 38.9247 47.5382 38.8696C47.5382 38.8613 47.5382 38.853 47.5415 38.8461L49.3132 27.9533L49.3197 27.9166C49.3295 27.8331 49.3447 27.7363 49.4197 27.7363C50.1867 27.6408 50.8833 27.2409 51.3532 26.6263C51.3682 26.6098 51.3781 26.5913 51.3982 26.5812C51.4515 26.5562 51.5148 26.5812 51.5698 26.6047L67.6539 33.4181L67.6556 33.4179ZM56.6134 44.7697L44.6362 56.7642L46.6863 44.1455L46.6896 44.129C46.6913 44.1124 46.6948 44.0956 46.6994 44.0805C46.716 44.0405 46.7594 44.0238 46.8011 44.0071L46.8211 43.9988C47.27 43.807 47.667 43.5112 47.9795 43.1358C48.0195 43.0891 48.0678 43.044 48.1295 43.0357C48.1455 43.033 48.1618 43.033 48.1778 43.0357L56.6116 44.7716L56.6134 44.7697ZM42.1011 59.3029L40.7511 60.6549L25.8254 39.0529C25.82 39.045 25.8144 39.0374 25.8088 39.0295C25.7856 38.9977 25.7605 38.9661 25.7655 38.9293C25.7655 38.9026 25.7839 38.8793 25.8022 38.8592L25.8187 38.8375C25.8637 38.7707 25.9021 38.704 25.9437 38.6322L25.977 38.5738L25.9822 38.5686C26.0057 38.5285 26.0272 38.4901 26.0672 38.4684C26.1022 38.4519 26.1506 38.4586 26.1889 38.4667L42.7247 41.8818C42.7709 41.8889 42.8145 41.9079 42.8513 41.9368C42.8731 41.9586 42.878 41.9819 42.883 42.0086C43.1168 42.8945 43.7507 43.6201 44.5964 43.9699C44.6431 43.9933 44.6231 44.045 44.6016 44.1001C44.5909 44.1242 44.5823 44.1494 44.5766 44.1752C44.3683 45.4437 42.5815 56.3565 42.1015 59.3026L42.1011 59.3029ZM39.281 62.1255C38.2859 63.1119 37.6992 63.6343 37.0359 63.8447C36.3818 64.0518 35.6799 64.0518 35.0258 63.8447C34.2491 63.5976 33.5774 62.9266 32.2357 61.5813L17.2467 46.5707L21.1618 40.4901C21.1803 40.46 21.1985 40.4333 21.2285 40.4116C21.2701 40.3816 21.3302 40.3951 21.3802 40.4116C22.2788 40.6831 23.2437 40.6341 24.1103 40.2731C24.1553 40.2565 24.2003 40.2447 24.2353 40.2764C24.253 40.2921 24.2684 40.3103 24.2819 40.3298L39.281 62.127L39.281 62.1255ZM15.8016 45.1236L12.3631 41.6802L19.1534 38.7792C19.1707 38.7715 19.1895 38.7677 19.2084 38.7675C19.2651 38.7675 19.2984 38.8242 19.3284 38.876C19.3967 38.9811 19.4689 39.0835 19.5451 39.1831L19.5668 39.2098C19.5869 39.2382 19.5733 39.2665 19.5534 39.2933L15.8032 45.1236L15.8016 45.1236ZM10.8414 40.1562L6.49116 35.7998C5.75113 35.0587 5.21444 34.5212 4.84109 34.0589L18.0684 36.8063C18.0849 36.8094 18.1016 36.8123 18.1184 36.8146C18.2 36.828 18.29 36.843 18.29 36.9198C18.29 37.0032 18.1917 37.0416 18.1083 37.0733L18.07 37.0899L10.8414 40.1562ZM4.08105 31.8189C4.09619 31.5383 4.14654 31.2607 4.23105 30.9927C4.47773 30.2149 5.14776 29.5439 6.49115 28.1985L12.0581 22.6236C14.6212 26.3489 17.1914 30.0694 19.7684 33.7851C19.8134 33.8452 19.8634 33.912 19.8118 33.9621C19.5684 34.2308 19.3251 34.5246 19.1534 34.8434C19.1347 34.8843 19.1061 34.92 19.07 34.9469C19.0483 34.9603 19.025 34.9552 19.0001 34.9502H18.9968L4.08105 31.8172V31.8189ZM13.5482 21.1314L21.0302 13.6353C21.7352 13.9441 24.297 15.0274 26.5854 15.9955C28.3188 16.7299 29.8989 17.3975 30.3956 17.6145C30.4456 17.6346 30.4906 17.6546 30.5123 17.7047C30.5257 17.7347 30.5188 17.7731 30.5123 17.8048C30.2716 18.904 30.5992 20.0507 31.384 20.856C31.434 20.9061 31.384 20.9778 31.3406 21.0396L31.3174 21.0747L23.7171 32.8638C23.697 32.8972 23.6787 32.9256 23.6454 32.9473C23.6054 32.9723 23.5487 32.9607 23.502 32.949C23.2064 32.8714 22.9025 32.83 22.597 32.8255C22.3236 32.8255 22.027 32.8756 21.7269 32.9306H21.7253C21.6919 32.9358 21.6619 32.9424 21.6352 32.9223C21.6058 32.8981 21.5805 32.8695 21.5603 32.8372L13.5466 21.1315L13.5482 21.1314ZM22.5452 12.1214L32.2357 2.41703C33.5774 1.07337 34.2491 0.400706 35.0258 0.155341C35.6799 -0.0517803 36.3818 -0.0517803 37.0359 0.155341C37.8126 0.400706 38.4843 1.07337 39.826 2.41703L41.9261 4.52014L35.0341 15.2093C35.0172 15.2404 34.9938 15.2677 34.9658 15.2894C34.9241 15.3178 34.8658 15.306 34.8158 15.2894C33.7126 14.9542 32.5154 15.1852 31.6156 15.907C31.5706 15.9537 31.504 15.927 31.4473 15.9018C30.5473 15.5095 23.5469 12.5468 22.5452 12.1212L22.5452 12.1214ZM43.3895 5.98564L49.7531 12.3584L48.2197 21.8692V21.8942C48.2184 21.9159 48.2137 21.9372 48.2063 21.9576C48.1897 21.991 48.1563 21.9977 48.1229 22.0077C47.7951 22.1072 47.4863 22.2612 47.2095 22.4634C47.1976 22.4721 47.1866 22.4815 47.1762 22.4918C47.1577 22.5118 47.1395 22.5301 47.1095 22.5335C47.0851 22.5342 47.0608 22.5304 47.0379 22.5217L37.3408 18.3956L37.3223 18.3873C37.2606 18.3623 37.1873 18.3322 37.1873 18.2688C37.1303 17.7277 36.9538 17.206 36.6706 16.7416C36.6239 16.6648 36.5722 16.5847 36.6122 16.5062L43.3895 5.98564ZM36.8359 20.3502L45.9263 24.206C45.9763 24.2294 46.0313 24.251 46.053 24.3028C46.0618 24.3339 46.0618 24.3668 46.053 24.3979C46.0263 24.5314 46.003 24.6833 46.003 24.8369V25.0923C46.003 25.1557 45.938 25.1824 45.878 25.2075L45.8595 25.214C44.4194 25.8299 25.6419 33.8484 25.6136 33.8484C25.5853 33.8484 25.5553 33.8484 25.5269 33.8201C25.4769 33.77 25.5269 33.6999 25.5719 33.6365C25.58 33.6255 25.5875 33.6142 25.5952 33.6031L33.0655 22.0193L33.079 21.9992C33.1223 21.9292 33.1723 21.8507 33.2523 21.8507L33.3273 21.8624C33.4973 21.8859 33.6473 21.9075 33.799 21.9075C34.9324 21.9075 35.9824 21.355 36.6158 20.4102C36.631 20.385 36.65 20.3624 36.6724 20.3434C36.7174 20.3101 36.7841 20.3269 36.8358 20.3499L36.8359 20.3502ZM26.4254 35.6813L46.893 26.94C46.893 26.94 46.923 26.94 46.9513 26.9684C47.063 27.0802 47.158 27.1553 47.2497 27.2254L47.2947 27.2538C47.3363 27.2773 47.378 27.3039 47.3813 27.3473C47.3813 27.3638 47.3813 27.374 47.3778 27.389L45.6244 38.175L45.6179 38.2184C45.6062 38.3019 45.5947 38.397 45.5163 38.397C44.5672 38.4612 43.7109 38.9902 43.2278 39.8108L43.2195 39.8242C43.1963 39.8626 43.1745 39.8993 43.1362 39.9194C43.1012 39.9359 43.0562 39.9292 43.0195 39.9211L26.6971 36.5494C26.6806 36.5461 26.4438 35.6831 26.4254 35.6814L26.4254 35.6813Z" fill="#20C6B7"/>
</g>
<defs>
<filter id="filter0_d_232_566" x="0" y="0" width="72" height="72" filterUnits="userSpaceOnUse" color-interpolation-filters="sRGB">
<feFlood flood-opacity="0" result="BackgroundImageFix"/>
<feColorMatrix in="SourceAlpha" type="matrix" values="0 0 0 0 0 0 0 0 0 0 0 0 0 0 0 0 0 0 127 0" result="hardAlpha"/>
<feOffset dy="4"/>
<feGaussianBlur stdDeviation="2"/>
<feComposite in2="hardAlpha" operator="out"/>
<feColorMatrix type="matrix" values="0 0 0 0 0 0 0 0 0 0 0 0 0 0 0 0 0 0 0.25 0"/>
<feBlend mode="normal" in2="BackgroundImageFix" result="effect1_dropShadow_232_566"/>
<feBlend mode="normal" in="SourceGraphic" in2="effect1_dropShadow_232_566" result="shape"/>
</filter>
<clipPath id="clip0_232_566">
<rect width="64" height="64" fill="white" transform="translate(4)"/>
</clipPath>
</defs>
</svg>
