<svg width="77" height="62" viewBox="0 0 77 62" fill="none" xmlns="http://www.w3.org/2000/svg">
<g clip-path="url(#clip0_232_606)" filter="url(#filter0_d_232_606)">
<path d="M36.4201 40.7023C36.3879 40.7667 36.3557 40.8183 36.4201 40.7023V40.7023ZM63.1789 31.3566C61.0184 31.356 58.8867 31.8522 56.9485 32.8067C56.3147 31.5284 55.6594 30.4112 55.552 29.5733C55.4231 28.5958 55.2834 28.0157 55.4338 26.8556C55.5842 25.6954 56.261 24.0519 56.2502 23.9337C56.2395 23.8155 56.0998 23.2247 54.7141 23.214C53.3283 23.2032 52.136 23.4825 51.9974 23.8478C51.7526 24.5152 51.5622 25.2014 51.4281 25.8995C51.181 27.1564 48.6576 31.6466 47.2289 33.9884C46.7563 33.0753 46.3588 32.2696 46.2729 31.6251C46.144 30.6476 46.0043 30.0675 46.1547 28.9073C46.3051 27.7472 46.9819 26.1036 46.9711 25.9855C46.9604 25.8673 46.8207 25.2765 45.4361 25.2657C44.0514 25.255 42.8579 25.5343 42.7183 25.8995C42.5786 26.2648 42.4282 27.1241 42.149 27.9513C41.8697 28.7784 38.5084 36.255 37.6286 38.1993C37.1775 39.1876 36.7907 39.9825 36.5114 40.5196C36.4685 40.6056 36.4363 40.6593 36.4148 40.7023C36.447 40.6485 36.4685 40.5948 36.4685 40.6163C36.2322 41.0782 36.0925 41.336 36.0925 41.336V41.3468C35.9099 41.6905 35.7058 42.0021 35.6091 42.0021C35.5447 42.0021 35.405 41.0997 35.6413 39.8644C36.1462 37.2648 37.3386 33.2257 37.3279 33.086C37.3171 33.0108 37.5534 32.3126 36.5437 31.9366C35.5661 31.5821 35.2116 32.173 35.1257 32.173C35.0398 32.173 34.9753 32.3878 34.9753 32.3878C34.9753 32.3878 36.0603 27.8331 32.8924 27.8331C30.9158 27.8331 28.1658 30.003 26.8145 31.9689C25.9658 32.4308 24.1289 33.4298 22.1953 34.4933C21.4541 34.9015 20.6914 35.3204 19.9717 35.7179C19.918 35.6642 19.875 35.6105 19.8213 35.5567C15.9767 31.4532 8.87501 28.5528 9.17901 23.0421C9.28644 21.0333 9.98468 15.7589 22.8323 9.35655C33.3597 4.11437 41.7816 5.55382 43.221 8.75499C45.305 13.3204 38.7211 21.8175 27.7845 23.0421C23.6176 23.504 21.4273 21.8927 20.8794 21.2911C20.3101 20.6573 20.2241 20.6251 20.0093 20.7433C19.6548 20.9366 19.8804 21.4952 20.0093 21.8282C20.3316 22.6769 21.6743 24.1808 23.9613 24.9327C25.9701 25.588 30.8557 25.9532 36.766 23.6651C43.4026 21.1085 48.5717 13.9864 47.0538 8.02452C45.5188 1.96808 35.4748 -0.0192277 25.9787 3.35382C20.3187 5.36261 14.1945 8.52081 9.79024 12.6351C4.55987 17.5335 3.72305 21.7982 4.0668 23.5814C5.29034 29.9085 14.0109 34.0335 17.5053 37.0843C17.3334 37.181 17.1723 37.2669 17.0219 37.3528C15.272 38.223 8.62364 41.7034 6.95968 45.3773C5.07979 49.5452 7.2712 52.5316 8.70958 52.9398C13.1987 54.1858 17.7953 51.9407 20.2682 48.2562C22.741 44.5716 22.4381 39.7591 21.2994 37.5677C21.2887 37.5355 21.2672 37.514 21.2565 37.4817C21.7076 37.2132 22.1695 36.9446 22.6315 36.6761C23.522 36.1497 24.3921 35.6663 25.1548 35.2474C24.7251 36.4075 24.4136 37.804 24.2525 39.8235C24.0591 42.1868 25.0366 45.2483 26.3042 46.4515C26.8628 46.9778 27.5385 46.9886 27.9574 46.9886C29.4399 46.9886 30.1059 45.764 30.846 44.303C31.7591 42.5198 32.5648 40.4466 32.5648 40.4466C32.5648 40.4466 31.555 46.054 34.3157 46.054C35.3244 46.054 36.3342 44.7542 36.7864 44.0882V44.0989C36.7864 44.0989 36.8079 44.056 36.8616 43.97C36.9691 43.8089 37.0228 43.7122 37.0228 43.7122V43.68C37.431 42.9817 38.3226 41.3812 39.6643 38.7386C41.4045 35.3226 43.0685 31.0579 43.0685 31.0579C43.2293 31.9954 43.4518 32.9212 43.7345 33.8294C44.0353 34.8499 44.6691 35.9671 45.174 37.0521C44.7657 37.6107 44.5187 37.9329 44.5187 37.9329C44.5195 37.9412 44.5233 37.9488 44.5294 37.9544C44.2072 38.3841 43.8419 38.846 43.4659 39.2972C42.092 40.93 40.4581 42.7991 40.2433 43.3362C39.9855 43.97 40.0499 44.4427 40.5441 44.8079C40.9093 45.0872 41.5538 45.1302 42.2295 45.0765C43.4649 44.9905 44.335 44.6898 44.7539 44.4964C45.5263 44.2194 46.2562 43.8362 46.9228 43.3577C48.2656 42.3694 49.082 40.9515 49.0068 39.0823C48.9638 38.0511 48.6308 37.0198 48.2226 36.053C48.3408 35.8812 48.4697 35.6985 48.5878 35.5159C50.7073 32.4093 52.3508 29.004 52.3508 29.004C52.5116 29.9415 52.7341 30.8673 53.0168 31.7755C53.2746 32.6456 53.7784 33.6017 54.2404 34.5362C52.2434 36.1583 51.008 38.0382 50.5783 39.2735C49.7834 41.5616 50.4065 42.5929 51.5774 42.8292C52.1037 42.9366 52.8557 42.6896 53.4143 42.4532C54.2439 42.1769 55.0261 41.7748 55.7335 41.2608C57.0763 40.2726 58.375 38.8868 58.2891 37.0069C58.2569 36.1583 58.0205 35.3097 57.709 34.4933C59.3955 33.7843 61.5859 33.3976 64.3788 33.7198C70.3601 34.4181 71.531 38.1564 71.3054 39.714C71.0798 41.2716 69.823 42.1417 69.404 42.3995C68.9851 42.6573 68.8562 42.754 68.8884 42.9474C68.9421 43.2267 69.1355 43.2159 69.49 43.1515C69.9841 43.0655 72.6256 41.8839 72.7438 38.9942C72.9157 35.3419 69.404 31.3243 63.1832 31.3566H63.1789ZM17.0735 46.9005C15.098 49.0597 12.3265 49.8761 11.1352 49.1886C9.86651 48.4474 10.3714 45.2677 12.8088 42.9689C14.2912 41.5724 16.2023 40.2833 17.4698 39.4884C17.7599 39.3165 18.1788 39.0587 18.6944 38.7472C18.7804 38.6935 18.8234 38.672 18.8234 38.672C18.92 38.6075 19.0275 38.5538 19.1349 38.4894C20.0254 41.755 19.1671 44.6339 17.0831 46.9005H17.0735ZM31.511 37.0821C30.8235 38.7687 29.3743 43.0655 28.4935 42.8399C27.7415 42.6466 27.2796 39.3702 28.3431 36.1476C28.8802 34.5255 30.0189 32.5919 30.6956 31.8399C31.7795 30.6261 32.9719 30.2394 33.2512 30.7228C33.6272 31.3566 31.9406 36.0294 31.511 37.0821ZM43.4348 42.7755C43.1448 42.9259 42.8762 43.0226 42.7473 42.9474C42.6506 42.8937 42.8655 42.6896 42.8655 42.6896C42.8655 42.6896 44.3586 41.089 44.9494 40.3585C45.2932 39.9288 45.6907 39.4239 46.1193 38.8653C46.1193 38.919 46.13 38.9728 46.13 39.0372C46.116 40.9601 44.2695 42.2599 43.4316 42.7755H43.4348ZM52.628 40.6808C52.4131 40.5304 52.4453 40.0255 53.1651 38.4571C53.4444 37.8448 54.0878 36.8136 55.2061 35.8253C55.3327 36.1994 55.4015 36.5906 55.4102 36.9855C55.3994 39.4024 53.67 40.3048 52.629 40.6808H52.628Z" fill="#E8489E"/>
</g>
<defs>
<filter id="filter0_d_232_606" x="0" y="0" width="76.75" height="63" filterUnits="userSpaceOnUse" color-interpolation-filters="sRGB">
<feFlood flood-opacity="0" result="BackgroundImageFix"/>
<feColorMatrix in="SourceAlpha" type="matrix" values="0 0 0 0 0 0 0 0 0 0 0 0 0 0 0 0 0 0 127 0" result="hardAlpha"/>
<feOffset dy="4"/>
<feGaussianBlur stdDeviation="2"/>
<feComposite in2="hardAlpha" operator="out"/>
<feColorMatrix type="matrix" values="0 0 0 0 0 0 0 0 0 0 0 0 0 0 0 0 0 0 0.25 0"/>
<feBlend mode="normal" in2="BackgroundImageFix" result="effect1_dropShadow_232_606"/>
<feBlend mode="normal" in="SourceGraphic" in2="effect1_dropShadow_232_606" result="shape"/>
</filter>
<clipPath id="clip0_232_606">
<rect width="68.75" height="55" fill="white" transform="translate(4)"/>
</clipPath>
</defs>
</svg>
