<svg width="64" height="64" viewBox="0 0 64 64" fill="none" xmlns="http://www.w3.org/2000/svg">
<g clip-path="url(#clip0_232_649)" filter="url(#filter0_d_232_649)">
<path fill-rule="evenodd" clip-rule="evenodd" d="M14.9477 23.4753C15.0228 23.532 15.1532 23.5689 15.0228 23.6808C14.9293 23.8113 14.8173 23.9232 14.7429 24.0728C14.6685 24.2039 14.6125 24.2407 14.5005 24.1479C14.6493 23.9048 14.7982 23.6801 14.947 23.4746L14.9477 23.4753ZM52.4362 43.0484C52.4362 43.1037 52.4546 43.1406 52.4546 43.1973C52.4922 43.1229 52.4922 43.0853 52.5113 43.0484H52.4362ZM52.4362 43.2157V43.1973V43.2157ZM48.6317 50.4994L45.3857 32.4961C45.3304 32.4784 45.256 32.4415 45.1249 32.404C45.1625 32.4784 45.1816 32.5344 45.2 32.5904C45.2922 32.5719 45.3304 32.5719 45.3673 32.5535C45.3673 32.5351 45.3673 32.5166 45.3864 32.4968L48.6324 50.5015L48.6317 50.4994ZM45.2744 28.4435C45.256 28.4988 45.256 28.5555 45.256 28.6115C45.256 28.5548 45.256 28.4981 45.2758 28.4428L45.2744 28.4435ZM45.2929 28.8163C45.2744 28.8163 45.2744 28.8163 45.256 28.7965V28.8149C45.2758 28.8334 45.2758 28.8334 45.2943 28.8149L45.2929 28.8163ZM45.256 28.9652V28.8341C45.2014 28.8525 45.1454 28.8525 45.0703 28.8716C45.1639 28.9071 45.2574 28.9269 45.2574 28.9638L45.256 28.9652Z" fill="#DD3735"/>
<path fill-rule="evenodd" clip-rule="evenodd" d="M59.7845 24.4277C59.7477 23.6991 59.7293 22.9705 59.6541 22.2427C59.5237 21.2526 59.3933 20.244 59.1694 19.2731C59.0014 18.4701 58.7228 17.7039 58.4422 16.9385C58.0878 16.042 57.7335 15.127 57.2855 14.268C56.5584 12.886 55.6073 11.6528 54.7306 10.3643C54.1508 9.54216 53.4052 8.87028 52.8453 8.02972C52.5285 7.54424 52.0622 7.13388 51.5958 6.76108C50.8495 6.1622 50.0664 5.62002 49.2832 5.09768C48.6922 4.68324 48.082 4.29679 47.4547 3.93961C46.9515 3.65825 46.4107 3.43429 45.8884 3.19119C45.2916 2.91124 44.7133 2.57459 44.0421 2.44418C43.8735 2.40875 43.7246 2.35205 43.5567 2.29535C43.1279 2.14652 42.7175 1.97855 42.288 1.84743C41.636 1.6419 41.0017 1.39951 40.3298 1.23083C39.6792 1.06286 39.0073 0.951589 38.3354 0.857328C37.5898 0.747474 36.8258 0.708494 36.0788 0.635494C35.602 0.573888 35.123 0.530388 34.6429 0.505087C33.9342 0.467524 33.207 0.467524 32.4983 0.449097C32.1439 0.429961 31.7711 0.392398 31.4167 0.411534C30.876 0.429961 30.3352 0.485951 29.7937 0.560368C29.2721 0.617067 28.7498 0.709202 28.2466 0.785037C27.6321 0.859454 27.0169 0.897017 26.401 0.972143C25.8227 1.04727 25.226 1.15925 24.6483 1.2528C24.4428 1.29036 24.2373 1.36478 24.0317 1.40164C23.5852 1.49519 23.1189 1.53275 22.671 1.68229C21.8701 1.9261 21.0671 2.20676 20.2839 2.50443C19.5561 2.80351 18.8473 3.12103 18.1577 3.49453C17.449 3.88575 16.7771 4.3521 16.106 4.80143C15.4613 5.23282 14.8325 5.68742 14.2207 6.16433C13.6254 6.63209 13.0655 7.15443 12.524 7.67748C12.2264 7.97515 11.9833 8.33093 11.7033 8.66687C11.2377 9.20905 10.7713 9.73139 10.3234 10.292C9.95203 10.7598 9.61467 11.2445 9.2603 11.7307C8.6274 12.5883 8.08664 13.504 7.58344 14.4197C7.3779 14.7932 7.19151 15.1667 7.00511 15.5395C6.72516 16.0994 6.42678 16.6415 6.16597 17.2206C5.97886 17.6132 5.83003 18.0427 5.71805 18.4722C5.45794 19.3879 5.19642 20.322 4.95403 21.2363C4.73007 22.0584 4.67408 22.9174 4.65636 23.7579C4.63723 24.505 4.71165 25.2335 4.78606 25.9805C4.8052 26.1676 4.69393 26.3916 4.91647 26.5404C4.84205 26.746 4.89804 26.8594 5.00861 26.8948C4.87962 27.1003 5.0653 27.2322 4.9916 27.4193C4.97246 27.4561 5.04829 27.5305 5.08373 27.5865C5.08373 27.6432 5.06601 27.7176 5.08373 27.7736C5.10358 27.9416 5.17799 28.1096 5.17799 28.2967C5.17799 28.4271 5.28926 28.5766 5.32683 28.7078C5.34525 28.763 5.32683 28.8566 5.28926 28.8941C5.17728 29.0246 5.19571 29.1365 5.36368 29.2117C5.45794 29.454 5.42038 29.566 5.40195 29.6794C5.43881 29.8467 5.38282 29.9027 5.40195 29.9402C5.55079 30.2393 5.60749 30.5753 5.6252 30.9112C5.6252 30.9863 5.66277 31.0615 5.70033 31.1543C5.71876 31.1543 5.70033 31.5087 5.70033 31.5087C5.79247 31.4534 5.8683 31.435 5.96114 31.3974C6.01784 31.6398 6.07312 31.8652 6.14754 32.0707C6.24109 32.2195 6.24109 32.2932 6.20424 32.3117C6.27866 32.6476 6.31551 32.9651 6.44521 33.2826C6.44521 32.9283 6.40977 32.5739 6.35307 32.2372C6.61389 32.3308 6.83785 32.4236 6.98739 32.4236C7.00653 32.3669 7.02495 32.2932 7.04409 32.2557C6.93211 32.1444 6.83856 31.9764 6.72658 31.8645C6.76414 32.0133 6.72658 32.07 6.72658 32.1267C6.65216 32.0884 6.55861 32.0508 6.46576 32.0133C6.54018 31.9212 6.6146 31.8269 6.72658 31.7156C6.72658 31.5469 6.63444 31.3967 6.37221 31.4158C6.48419 31.379 6.59617 31.3237 6.72658 31.2854C6.93211 31.1741 6.70815 30.9686 6.70815 30.7071C6.72658 30.3903 6.54018 30.0728 6.48419 29.7361C6.39064 29.2138 6.40977 28.4292 6.35378 27.9062C6.2418 27.8126 6.14825 28.055 6.12982 28.0741C6.18652 28.5221 6.2418 28.97 6.27866 29.4186C6.16739 29.0451 6.09226 28.634 5.99942 28.1854C5.98028 28.3165 5.96185 28.3725 5.96185 28.4476C5.86972 28.5398 5.94343 28.6532 5.99942 28.7836C5.86901 28.7269 5.71947 28.7467 5.71947 28.7467V29.2698C5.53378 29.0827 5.4785 28.9338 5.38423 28.802C5.34738 28.6532 5.32754 28.5043 5.2921 28.3555C5.32754 28.2612 5.2921 28.2053 5.2921 28.15C5.2702 28.0006 5.2513 27.8508 5.2354 27.7006C5.25383 27.6822 5.21697 27.403 5.21697 27.403C5.36581 27.4207 5.46007 27.4384 5.55291 27.4384C5.36652 27.1974 5.49621 27.0472 5.57205 26.8976C5.60961 26.8225 5.74002 26.8055 5.77758 26.729C5.92642 26.449 6.16951 26.2258 6.16951 25.87C6.16951 25.702 6.22621 25.5156 6.24393 25.3469C6.28149 25.0294 6.31835 24.7119 6.33606 24.3944C6.37434 23.9833 6.33606 23.5723 6.43033 23.1803C6.58058 22.5283 6.76697 21.8741 6.9718 21.22C7.12063 20.7522 7.28931 20.3057 7.475 19.8379C7.75495 19.1094 8.01647 18.3808 8.37084 17.6905C8.87404 16.6812 9.45237 15.7103 10.0123 14.7209C10.3666 14.1043 10.7394 13.5252 11.1321 12.9278C11.5042 12.3487 11.8762 11.7513 12.3064 11.2091C12.897 10.4443 13.5591 9.73759 14.2838 9.09849C15.0301 8.42661 15.7388 7.73559 16.5404 7.119C17.5837 6.31463 18.6947 5.60205 19.8608 4.98925C20.8127 4.48605 21.8006 4.09199 22.7893 3.71849C23.4236 3.4761 24.1132 3.36412 24.7667 3.15859C25.5123 2.91549 26.2586 2.80422 27.0417 2.78508C27.5449 2.76595 28.0304 2.70996 28.5336 2.65397C28.9815 2.61853 29.4287 2.58026 29.9142 2.52427C29.8575 2.59869 29.8391 2.63625 29.8207 2.6731C29.6166 2.97219 29.3926 3.27128 29.1871 3.56965C29.0191 3.81275 28.8327 4.07427 28.6647 4.31666C28.3656 4.71001 28.0481 5.10194 27.7689 5.513C27.3401 6.1296 26.9482 6.76463 26.5003 7.38052C26.0538 7.97798 25.5683 8.53859 25.1019 9.11692C24.4867 9.92062 23.9084 10.742 23.2932 11.545C22.7333 12.3105 22.138 13.0405 21.5965 13.8059C21.1118 14.4771 20.6823 15.1879 20.2159 15.8775C19.5263 16.9052 18.836 17.913 18.1464 18.9407C17.605 19.7229 17.0579 20.5011 16.505 21.2753C16.4674 21.332 16.4114 21.349 16.3561 21.3865C16.2073 21.6289 16.2073 21.76 16.1506 21.872C16.0018 22.152 15.8529 22.4319 15.6843 22.6941C15.5907 22.843 15.4603 22.9734 15.3483 23.1229C15.3299 22.899 15.646 22.787 15.4972 22.5063C15.405 22.6566 15.3108 22.787 15.2179 22.9365L14.994 23.383C15.0684 23.4397 15.1995 23.4773 15.0684 23.5886C15.0117 23.6828 14.9564 23.7941 14.9004 23.8884C14.9811 23.8409 15.0511 23.7772 15.1059 23.7013C15.1059 23.9068 14.994 24.074 14.9004 24.242C14.826 24.3909 14.6396 24.5042 14.5092 24.6155C14.5276 24.6347 14.658 24.6906 14.6772 24.7091C14.8451 24.6524 14.9011 24.5602 14.9203 24.6155C14.9769 24.5411 15.0322 24.4851 15.0507 24.4291C15.1244 24.242 15.2363 24.0932 15.4227 24.0181C15.4979 23.9805 15.5532 23.9245 15.6091 23.8692C16.169 23.2895 16.7474 22.7296 17.2506 22.113C18.0344 21.1597 18.7432 20.171 19.4902 19.2001C19.8063 18.789 20.1798 18.3779 20.515 17.9853C20.5703 18.4148 20.5334 18.8252 20.515 19.2185C20.4583 19.9088 20.4214 20.6005 20.3662 21.3093C20.347 21.5892 20.3662 21.8692 20.347 22.1498C20.347 22.2242 20.2903 22.2802 20.2903 22.3554C20.2903 22.5418 20.347 22.7473 20.347 22.9344C20.2903 23.6254 20.2152 24.2973 20.1592 24.9883C20.1401 25.1371 20.2145 25.2874 20.2513 25.4185C20.1592 26.4263 20.3647 27.4916 20.1961 28.5561C20.3265 28.3505 20.364 28.2201 20.364 28.0897C20.3818 27.9778 20.364 27.8658 20.364 27.7354V27.5483C20.3818 27.2116 20.4562 26.8572 20.4193 26.5206C20.3818 26.1471 20.3818 25.7927 20.4569 25.4376C20.4944 25.2888 20.4385 25.1017 20.532 24.9146V25.1946C20.5136 26.2577 20.5511 27.3229 20.4023 28.3874C20.3832 28.481 20.459 28.6496 20.2535 28.6305C20.0848 28.9664 20.2903 29.2095 20.1046 29.3959C20.0664 29.4335 20.1401 29.6015 20.1592 29.7134C20.0841 29.9381 20.0841 29.9381 20.1961 29.9565C20.2145 30.3676 20.2528 30.7404 20.2705 31.133C20.5682 30.4243 20.4193 29.6943 20.5511 28.9657C20.5696 29.2648 20.5887 29.5639 20.5696 29.88C20.5696 30.3669 20.5511 30.8332 20.5327 31.3187C20.5327 31.4123 20.5136 31.5058 20.4952 31.5994C20.4385 31.8616 20.4207 32.1224 20.3272 32.3648C20.2528 32.5519 20.2903 32.8326 20.2903 33.0558V33.7667C20.3647 34.0842 20.2712 34.2522 20.3272 34.4386C20.2705 34.6264 20.2528 34.6824 20.2705 34.7384L20.3272 35.0183C20.7007 34.9808 20.5327 35.2614 20.6815 35.4103C20.5696 35.5605 20.6071 35.6158 20.6071 35.6916C20.6071 35.8596 20.5894 36.0091 20.5703 36.1771C20.5703 36.6066 20.5519 37.0361 20.5519 37.4472C20.5519 37.5039 20.5703 37.5584 20.5703 37.6144C20.5703 37.6527 20.5519 38.1389 20.5519 38.1389C20.5894 38.1942 20.5519 38.2501 20.4952 38.3061C20.4774 38.3061 20.4214 35.934 20.4214 35.934H20.1415C20.1046 37.0538 20.1982 38.0623 19.9927 39.1091C19.7687 39.1269 19.695 39.1644 19.4512 39.1644C18.8729 39.1644 18.2945 39.1644 17.7162 39.1828C17.0259 39.1828 16.3554 39.2013 15.6644 39.2013C15.3299 39.2013 14.9755 39.2395 14.6396 39.2395C14.1917 39.2395 13.7253 39.1828 13.2788 39.1828C12.5878 39.1828 11.9166 39.2395 11.2263 39.258C10.7231 39.2764 10.2199 39.2764 9.71673 39.2955C9.38008 39.3132 9.04343 39.331 8.70891 39.3692C8.56007 39.3877 8.42896 39.4437 8.24256 39.4996C8.18586 39.4996 8.05616 39.4812 7.94489 39.4996C7.75708 39.5372 7.59052 39.6485 7.40271 39.6868C7.12276 39.7435 7.04834 39.8172 7.0852 40.0978V40.2842C7.06677 40.3211 7.49626 40.2275 7.49626 40.2275C7.45799 40.2275 7.43956 40.3395 7.38286 40.433C7.53312 40.3764 7.62596 40.3395 7.71951 40.3026C7.99946 40.4338 8.24185 40.3593 8.4651 40.416C9.19226 40.6017 9.93785 40.6783 10.6834 40.7513C11.1689 40.7888 11.6353 40.808 12.12 40.8257C12.8096 40.8633 13.4999 40.9008 14.1895 40.9008C14.7679 40.9008 15.3278 40.8441 15.9047 40.8441C16.7056 40.8441 17.5093 40.881 18.3108 40.9008C18.4788 40.9008 18.6652 40.881 18.8516 40.881H20.2124C21.4257 40.8441 22.6377 40.8243 23.8503 40.7888C24.5413 40.769 25.25 40.7321 25.9396 40.713L28.0659 40.6563C28.8866 40.6379 29.7073 40.6379 30.5096 40.6209C31.1247 40.6209 31.7215 40.5996 32.3381 40.5819C33.027 40.5635 33.7357 40.5075 34.426 40.4706C34.7995 40.4515 35.173 40.4139 35.5458 40.3771C35.9937 40.3402 36.4601 40.2849 36.9066 40.2658C37.5785 40.2275 38.2688 40.2091 38.9407 40.1715C39.7798 40.1162 40.6189 40.0418 41.4765 40.0227C42.2604 39.9858 43.062 40.0043 43.8458 39.9858C44.5361 39.9667 45.2264 39.9291 45.9352 39.9107L47.1117 39.854C47.1117 39.854 47.8941 39.8356 48.286 39.7973C48.9572 39.7605 49.6284 39.686 50.3003 39.6676C50.7283 39.6485 51.1578 39.6676 51.5866 39.6485C52.2762 39.6301 52.9849 39.5918 53.6752 39.5918C53.9353 39.5918 54.2153 39.6301 54.5512 39.6485C54.4024 39.7796 54.3088 39.854 54.1969 39.9476C54.2713 39.966 54.3457 40.0043 54.4208 40.0411C54.3339 40.1026 54.2296 40.1348 54.1232 40.1333C54.0849 40.2275 54.0473 40.2651 54.0098 40.4522H54.3457C54.2153 40.4522 54.1033 40.6202 53.9729 40.7321C53.8241 40.6939 53.693 40.7321 53.6185 40.9377C53.749 41.0114 53.7305 41.0674 53.7121 41.1432C53.4881 41.2169 53.3202 41.292 53.4144 41.5344C53.3386 41.5713 53.2457 41.6088 53.1522 41.6648C53.0601 41.8137 52.8914 41.8512 52.9282 42.0568C53.0034 42.0745 53.0771 42.1135 53.1338 42.1305C53.0402 42.168 52.9474 42.224 52.8538 42.2609C52.5186 42.4664 52.6681 42.56 52.7426 42.6535C52.6859 42.6911 52.6306 42.7279 52.5746 42.7471C52.6114 42.915 52.6667 42.9526 52.6859 42.9526C52.5905 43.0247 52.4972 43.0994 52.4059 43.1766C52.3492 43.3445 52.2748 43.4189 52.2004 43.5309C52.126 43.6429 52.0884 43.7932 51.9948 43.9044C51.6036 44.3346 51.3237 44.84 50.8205 45.1752C50.6334 45.3063 50.4661 45.4743 50.2981 45.643C49.9622 45.9598 49.6638 46.3148 49.3094 46.6139C48.8409 47.002 48.3556 47.3694 47.8551 47.7153C47.2444 48.145 46.6292 48.5684 46.0096 48.9853C45.6736 49.2086 45.3008 49.3766 44.9465 49.5821C44.5921 49.7876 44.2562 49.9747 43.9018 50.1796C43.6778 50.3284 43.4723 50.5339 43.2299 50.6473C42.6147 50.9096 41.9613 51.1328 41.3277 51.3759C40.7111 51.6381 40.2646 51.8614 39.7982 52.0294C39.3694 52.1782 38.9215 52.2916 38.4743 52.3837C38.3255 52.422 38.1568 52.3837 37.9888 52.4029C37.6713 52.4596 37.3545 52.5347 37.037 52.5715C36.2163 52.6835 35.3956 52.7586 34.5756 52.8706C34.0901 52.9273 33.6237 53.0195 33.139 53.0762C32.8037 53.0946 32.4494 53.0577 32.1134 53.0577C31.871 53.0577 31.6102 53.1144 31.3671 53.0769C30.9759 53.0202 30.584 52.928 30.1921 52.8529C30.0999 52.8345 29.9681 52.7962 29.8944 52.8345C29.7455 52.9096 29.6137 52.7976 29.4642 52.8345C29.372 52.8536 29.2785 52.7778 29.1849 52.7778C29.1098 52.7601 29.0163 52.7976 28.9227 52.7778C28.7172 52.7225 28.5315 52.6481 28.3061 52.6665C28.0843 52.6849 27.8596 52.573 27.6186 52.5177C27.282 52.4425 26.9666 52.3688 26.6292 52.293C26.4989 52.2523 26.3739 52.1959 26.2572 52.125C25.7717 52.125 25.4542 52.1066 25.1558 51.9939C24.895 51.9018 24.6526 51.7707 24.3726 51.8082C24.2989 51.8267 24.2429 51.7898 24.1671 51.7898C24.1104 51.7147 24.0558 51.5651 24.0006 51.5651C23.6278 51.5843 23.4038 51.2675 23.0863 51.1732C22.919 51.1165 22.7886 50.9301 22.6206 50.8741C22.2096 50.7061 21.8751 50.3518 21.4087 50.2958C21.2599 50.2767 21.111 50.2022 20.9424 50.147C20.9991 50.2207 21.0345 50.2767 21.0912 50.3326C20.5504 50.0704 20.0472 49.7727 19.5433 49.4921C19.4696 49.4737 19.4136 49.4 19.3576 49.3617L18.8544 49.0257C18.5745 49.0824 18.4625 48.969 18.3867 48.9322C17.8835 48.5778 17.3058 48.3532 16.8204 47.9612C16.6148 47.7925 16.3739 47.6806 16.225 47.475C15.9628 47.1575 15.646 46.9336 15.2916 46.7472C15.0124 46.5983 14.7516 46.4296 14.4908 46.2617C14.3596 46.1681 14.2285 46.0561 14.2285 45.8506C14.2285 45.7195 14.1732 45.5884 14.0053 45.6635C13.9309 45.5515 13.8564 45.4211 13.7629 45.3836C13.5389 45.2914 13.3901 45.1213 13.2221 44.9725C13.0542 44.8237 12.9245 44.6181 12.7189 44.5437C12.3454 44.3949 12.1215 44.0774 11.8982 43.8158C11.3752 43.1992 10.9088 42.5259 10.424 41.8739C10.3865 41.8172 10.3121 41.7796 10.2561 41.7237C10.3305 41.9292 10.424 42.0972 10.5169 42.2836C10.3312 42.2091 10.2008 42.078 10.0888 41.9476C10.0697 41.9668 11.3752 44.1142 11.3752 44.1142C11.4886 44.2822 11.5807 44.4509 11.6927 44.6188C11.5803 44.6293 11.4674 44.6065 11.3678 44.5533C11.2683 44.5002 11.1866 44.419 11.1328 44.3197C10.9655 44.0221 10.7784 43.835 10.4056 43.8732C10.3661 43.7384 10.3353 43.6011 10.3135 43.4622C10.2376 43.4622 10.1824 43.4622 10.0512 43.443C10.3135 43.8541 10.5367 44.2085 10.7791 44.6195C10.6849 44.5628 10.6303 44.526 10.5913 44.5076C10.9265 44.8619 11.1689 45.3106 11.5977 45.5352C11.6913 45.964 12.176 46.1695 12.288 46.5806C12.1959 46.5615 12.1193 46.543 12.0258 46.5239C11.8769 46.3375 11.709 46.1511 11.5417 45.9456C11.5786 46.076 11.6339 46.188 11.709 46.2815C11.9329 46.5615 12.1385 46.8414 12.3993 47.0845C12.4928 47.1795 12.6232 47.2171 12.6232 47.385C12.7721 47.4594 12.8288 47.4772 12.8841 47.4772C12.9223 47.5906 12.8663 47.7585 13.0896 47.721C13.2384 48.0009 13.3873 48.0009 13.5928 47.9081C13.8359 48.1512 13.967 48.1703 14.1343 48.0215C14.1343 48.1136 14.1527 48.2072 14.1527 48.2823C14.2271 48.2447 14.2094 48.1887 14.2094 48.0952C14.3015 48.1696 14.3582 48.2072 14.3951 48.244C14.5815 48.5062 14.7494 48.7486 15.0103 48.9542C15.3646 49.2532 15.6821 49.5708 16.0167 49.8507C16.6701 50.3929 17.3987 50.8415 18.1251 51.2519C19.021 51.7565 19.8793 52.298 20.7928 52.7827C21.8928 53.3625 23.0679 53.7551 24.2798 54.0351C24.7277 54.1286 25.1565 54.2215 25.6051 54.3327C25.9949 54.4461 26.3876 54.6141 26.7795 54.707C27.3763 54.8381 27.9914 54.9501 28.5882 55.0613C28.7179 55.0805 28.8504 55.0996 28.9993 55.118C29.1658 55.1556 29.3706 55.0805 29.4082 55.1372C29.5017 55.286 29.5762 55.2109 29.6881 55.1924C29.8185 55.1549 29.9681 55.1549 30.1169 55.1549C30.6393 55.1733 31.1425 55.2853 31.6648 55.2484C31.7782 55.2484 31.9455 55.1542 32.039 55.3406C32.2063 55.2661 32.2998 55.2661 32.3742 55.2484C32.3941 55.4157 32.3742 55.4157 32.3388 55.4341C32.3005 55.4525 32.2445 55.4717 32.1701 55.5277C32.8413 55.6581 33.4756 55.6765 34.0341 55.5277C35.0051 55.6021 35.8442 55.4901 36.6465 55.2102C36.7209 55.3037 36.7769 55.4341 36.8889 55.2477C36.9257 55.191 37.0193 55.1719 37.0944 55.1535C37.2617 55.1159 37.4672 55.0415 37.616 55.0968C37.7847 55.1535 37.8407 55.0046 37.9704 55.0046C38.1951 55.0046 38.3999 54.9855 38.6054 54.9479C38.7174 54.9295 38.8294 54.8735 38.9598 54.8359C38.832 54.7728 38.6912 54.7405 38.5487 54.7417C38.7734 54.6297 38.9782 54.5362 39.1838 54.444C39.1462 54.4993 39.1086 54.5737 39.0349 54.5737H39.295C39.2383 54.5737 39.1639 54.7417 39.0711 54.8537C39.7415 54.6857 40.3567 54.5362 40.9542 54.3859C40.7486 53.9947 41.1774 54.1258 41.327 53.9011C41.1406 53.9578 40.9542 54.0131 40.7671 54.05C41.4014 53.7332 42.0541 53.4532 42.6877 53.1733C42.5956 53.2852 42.4822 53.3412 42.3157 53.4355C42.4276 53.4532 42.5021 53.4532 42.558 53.4709C42.8557 53.5652 42.782 53.2852 42.8748 53.1166C43.2292 53.1166 43.378 53.0613 43.546 53.0046C43.7324 52.9479 43.9188 52.8926 44.1059 52.8182C44.4036 52.6878 44.6835 52.5205 44.9819 52.3717C45.0386 52.3518 45.1307 52.3717 45.2059 52.3717C45.4114 52.2398 45.4851 52.1279 45.5411 52.1463C45.8033 52.1839 45.9876 52.0896 46.0627 51.8486C46.1931 51.7544 46.2867 51.6799 46.3795 51.6233C46.7892 51.3993 47.1804 51.1753 47.5915 50.9514C47.7403 50.9514 47.8154 50.9514 47.8523 50.9322C48.0961 50.8188 48.3201 50.6898 48.5433 50.5587C48.4792 50.5321 48.417 50.5013 48.3569 50.4666C48.5426 50.4283 48.5979 50.4099 48.7113 50.3723C49.1578 49.8479 49.7744 49.4935 50.24 49.0824C50.4455 49.064 50.4455 49.008 50.4455 48.9712C50.5192 48.8776 50.5944 48.7656 50.6865 48.6905C51.0976 48.317 51.5441 47.9995 51.9176 47.6076C52.4577 47.0694 52.9741 46.508 53.4655 45.925C53.912 45.402 54.3613 44.8796 54.7341 44.3006C55.2564 43.4976 55.7036 42.6755 56.17 41.8342C56.5059 41.2375 56.8043 40.64 57.141 40.0425C57.1764 39.9858 57.2522 39.9114 57.3082 39.9114C57.8114 39.8547 58.316 39.8193 58.8008 39.7626C58.9128 39.7442 59.0432 39.6705 59.1552 39.6138C59.0985 39.5202 59.0616 39.4082 59.0063 39.3147C58.9312 39.2013 58.8192 39.1091 58.7441 38.9957C58.6704 38.9036 58.6144 38.7902 58.5584 38.6789C58.5017 38.5868 58.4464 38.5117 58.3904 38.4167C58.2733 38.2111 58.1669 37.9996 58.0715 37.7831C58.0531 37.7264 58.0148 37.6343 58.0347 37.5776C58.3706 36.8497 58.501 36.0651 58.8178 35.3365C59.1346 34.5895 59.2289 33.749 59.3777 32.946C59.5081 32.1805 59.5833 31.4151 59.6754 30.6497C59.7321 30.1082 59.8065 29.5852 59.8242 29.0437C59.9376 28.1847 59.8993 27.381 59.8809 26.5773C59.8625 25.8686 59.8242 25.14 59.7888 24.4298L59.7845 24.4277ZM12.9904 47.4176C12.86 47.2688 12.748 47.1001 12.6176 46.9513L12.6743 46.8946C12.8777 47.1192 13.0832 47.3432 13.288 47.5863C13.1761 47.5296 13.0456 47.4927 12.9904 47.4176ZM13.288 47.5863C13.3447 47.5672 13.4014 47.5672 13.4567 47.5487C13.5134 47.6423 13.5503 47.7543 13.6055 47.8663C13.3447 47.8471 13.2143 47.7351 13.2887 47.5863H13.288ZM32.6861 55.2995V55.2428C33.0405 55.2059 33.3757 55.1683 33.7301 55.1315V55.1861C33.3757 55.2428 33.0405 55.2782 32.6861 55.298V55.2995ZM37.385 54.814C37.1249 54.8707 36.8449 54.9082 36.5841 54.9458C36.4906 54.9642 36.3786 55.0578 36.3417 54.8891C36.3042 54.9082 36.2666 54.9082 36.2298 54.9274C36.3219 55.2066 36.5466 54.9827 36.733 55.0946C36.3219 55.1513 35.9321 55.1882 35.5395 55.2435V55.2066C35.6528 55.1882 35.7825 55.1691 35.8938 55.1499V55.0946C35.7079 55.0726 35.5211 55.06 35.3339 55.0571C35.2793 55.0571 35.2042 55.1322 35.1482 55.1506C35.0738 55.1691 34.9994 55.1882 34.9058 55.1882C34.589 55.2066 34.2722 55.2066 33.9731 55.225C33.954 55.225 33.9165 55.2066 33.898 55.2066V55.1499C35.1475 54.9827 36.3786 54.8147 37.6281 54.6467C37.6472 54.6836 37.6472 54.7211 37.6657 54.758C37.5537 54.758 37.4793 54.797 37.3857 54.8147L37.385 54.814ZM37.6657 54.6283C38.0951 54.5716 38.4878 54.5347 38.8974 54.4795C38.0399 54.7218 37.7599 54.7587 37.6664 54.6283H37.6657ZM21.4208 16.9201C22.0161 16.0979 22.6327 15.2758 23.2294 14.436C23.4158 14.1915 23.5647 13.9299 23.7511 13.6875C23.8078 13.6124 23.8822 13.5756 23.975 13.5004L23.9566 13.465C24.031 13.3707 24.1054 13.2949 24.143 13.2212C24.238 13.0724 24.294 12.9037 24.3684 12.7357C24.3868 12.7003 24.4428 12.6627 24.4428 12.6627C24.705 12.7931 24.705 12.5139 24.7972 12.4196C24.9651 12.2325 25.1331 12.0277 25.2819 11.8406C25.3939 11.6917 25.5059 11.5606 25.5995 11.3927C25.6179 11.336 25.5619 11.2438 25.5428 11.168H25.4875C25.5442 11.1311 25.5995 11.0759 25.6554 11.0376C25.6739 11.0376 25.6739 11.0376 25.6923 11.0192C25.8043 10.8505 25.9163 10.6825 26.0282 10.533C26.2515 10.2353 26.4939 9.93621 26.7547 9.6754C26.7178 9.76754 26.6803 9.8618 26.6427 9.93621C26.6618 9.93621 26.6618 9.95535 26.6803 9.95535C26.9042 9.65626 27.1466 9.37631 27.3706 9.07652C27.3514 9.0588 27.333 9.03967 27.3139 9.03967C27.2217 9.13322 27.1466 9.22677 27.0531 9.32032C27.0346 9.30119 27.0162 9.28276 26.9964 9.28276C27.1842 9.03966 27.3706 8.79728 27.5563 8.51733C27.5938 8.57403 27.6314 8.64774 27.7051 8.79728C27.7809 8.61088 27.8554 8.48047 27.9106 8.34936C27.8554 8.40606 27.7809 8.46134 27.7249 8.51804L27.6683 8.46134L28.0042 7.95814C28.3586 7.45352 28.7129 6.93047 29.0673 6.42585C29.1984 6.23946 29.365 6.08991 29.4784 5.90281C29.8327 5.19407 30.3926 4.63276 30.8207 3.9793C30.9143 3.8489 31.0447 3.73692 31.1566 3.62494C31.2488 3.51154 31.3246 3.54981 31.399 3.64336C31.9022 4.27839 32.4054 4.93184 32.9086 5.56687C33.2828 6.03463 33.6556 6.48113 34.01 6.96733C34.4388 7.5655 34.8491 8.16296 35.2786 8.76042C35.7634 9.45144 36.2482 10.1425 36.7145 10.8512C37.4233 11.898 38.0944 12.9441 38.8032 13.9895C39.3255 14.7549 39.8478 15.5026 40.351 16.268H39.3985C38.5225 16.2503 37.6267 16.1759 36.7507 16.2128C35.5572 16.2695 34.3452 16.3999 33.1517 16.4934C31.6407 16.6245 30.1113 16.6423 28.6017 16.6423C28.0595 16.6423 27.5187 16.7181 26.9787 16.7557C26.3252 16.7925 25.6909 16.8301 25.0381 16.8478C24.2727 16.8861 23.5285 16.9045 22.7631 16.9236C22.3336 16.9421 21.8864 16.9236 21.4201 16.9236L21.4208 16.9201ZM42.8125 25.5099V25.6786C42.7941 25.6786 42.7756 25.6978 42.7381 25.6978C42.6636 25.4355 42.5892 25.1549 42.4957 24.8933C42.3093 24.3512 42.1037 23.809 41.7678 23.3242C41.3936 22.8019 41.0591 22.2611 40.6849 21.7189C40.5927 21.5878 40.4609 21.4758 40.3489 21.3646C39.957 20.9344 39.5651 20.4857 39.0619 20.1689C38.3204 19.7039 37.5403 19.3036 36.7301 18.9726C36.5052 18.876 36.2873 18.7637 36.0781 18.6366H36.5246L39.7139 18.5799C40.4042 18.5622 41.0761 18.5622 41.7657 18.5247C41.9329 18.5247 42.0265 18.5814 42.12 18.7302C42.2873 19.0101 42.4553 19.2901 42.6417 19.5707C42.6608 19.6076 42.6984 19.6629 42.6984 19.7196C42.6984 20.1306 42.6984 20.5601 42.7168 20.9712C42.7345 21.4007 42.7735 21.8118 42.7905 22.2413C42.7905 22.6708 42.7529 23.1187 42.7721 23.5666C42.7912 24.2023 42.8096 24.8565 42.8096 25.5085L42.8125 25.5099ZM22.744 19.2561C23.6207 19.2185 24.4591 19.1625 25.3181 19.125C25.9878 19.0874 26.6789 19.0683 27.3493 19.0314C27.6293 19.0137 27.8908 18.996 28.17 19.0314C27.8724 19.1817 27.5733 19.3312 27.3125 19.5176C26.9765 19.7416 26.6604 20.0399 26.3238 20.283C25.9871 20.5254 25.6888 20.8245 25.4095 21.142C25.0551 21.5708 24.6632 21.9443 24.2897 22.3554C24.0275 22.6544 23.7298 22.9344 23.5066 23.2519C23.1898 23.663 22.9098 24.1095 22.6114 24.5772C22.705 22.8026 22.817 21.0477 22.7418 19.2547L22.744 19.2561ZM34.9236 37.2225C34.3261 37.3713 33.7116 37.54 33.095 37.6144C32.5734 37.6895 32.0319 37.6711 31.4912 37.6711C31.005 37.6711 30.5386 37.6527 30.0539 37.6144C29.5131 37.5591 28.9723 37.5031 28.45 37.26C28.0014 37.0545 27.5357 36.8681 27.0892 36.6434C26.6399 36.4195 26.1927 36.1587 25.856 35.7476C25.615 35.4478 25.2784 35.2054 24.98 34.9439C25.0367 35.1679 25.1664 35.355 25.372 35.4854C25.2784 35.5974 25.148 35.5421 24.9609 35.2423C24.9056 35.2798 24.8496 35.299 24.8121 35.3174C24.8687 35.1863 24.924 35.0552 24.98 34.9439C24.9056 34.7951 24.8121 34.6264 24.7376 34.4761C24.5888 34.2338 24.44 33.9729 24.3089 33.7298C24.2713 33.6731 24.2713 33.6179 24.2344 33.5619C24.1413 33.4542 24.0538 33.3418 23.9722 33.2252C23.8234 33.002 23.693 32.7596 23.5066 32.5349C23.5066 32.5916 23.5257 32.6469 23.5257 32.722C23.5066 32.722 23.4881 32.7404 23.4881 32.7404L23.0955 31.7879C23.0771 31.7879 23.0771 31.7879 23.0586 31.8063L23.3939 33.0395C23.3754 33.0395 23.357 33.0573 23.3372 33.0573C23.2826 32.9835 23.2266 32.9084 23.1883 32.8163C23.1515 32.666 23.0395 32.666 22.9474 32.722C22.8907 32.7596 22.8531 32.89 22.8722 32.946C23.0034 33.2635 23.1522 33.581 23.3017 33.8985C23.3386 34.0105 23.3762 34.1041 23.4321 34.216C23.4513 34.2536 23.5073 34.2905 23.5073 34.3464C23.5824 34.4953 23.6384 34.6441 23.7312 34.7759C23.8992 34.9999 24.0856 35.2239 24.2536 35.4478C24.4201 35.6718 24.569 35.9156 24.7185 36.1388C24.7369 36.1764 24.7929 36.1764 24.8106 36.1955C24.9049 36.4755 25.2217 36.6803 25.4457 36.5683C25.5024 36.9978 25.968 37.1474 26.1544 37.5584C25.9714 37.4837 25.791 37.4026 25.6136 37.3153C25.5945 37.3338 25.5945 37.3522 25.5754 37.3897C25.7993 37.5017 26.0233 37.6137 26.2274 37.7441C26.4152 37.8575 26.6016 37.9688 26.7696 38.0985C26.9935 38.304 27.2551 38.4174 27.5704 38.4911C27.5534 38.4344 27.535 38.4153 27.535 38.4153C28.0566 38.6584 28.5981 38.9199 29.0078 39.124C27.068 39.1623 24.9977 39.1999 22.8524 39.2374C22.8524 38.883 22.834 38.5464 22.834 38.1913C22.834 38.0425 22.8708 37.9114 22.8517 37.7618C22.795 36.9043 22.795 36.0439 22.6837 35.2033C22.5725 34.3075 22.5725 33.4293 22.5916 32.5314C22.6093 32.0473 22.5725 31.5434 22.5533 31.0572C22.5533 30.4038 22.5533 29.7673 22.5732 29.1153C22.5732 29.0217 22.6107 28.9473 22.6483 28.853H22.705C22.7227 28.8913 22.705 28.9473 22.7404 28.9664C22.7971 29.0231 22.8907 29.1153 22.9282 29.0968C23.0395 29.0217 23.2075 28.948 23.245 28.8346C23.3372 28.6114 23.3754 28.3683 23.3754 28.1443C23.3754 27.977 23.4506 27.8651 23.5243 27.7524C23.5626 27.6957 23.581 27.6404 23.6185 27.566C23.5441 27.5093 23.4697 27.4724 23.3762 27.398C23.4513 27.1925 23.4329 26.9494 23.7128 26.8381C23.7497 26.819 23.7497 26.7247 23.7695 26.6694C23.7872 26.5185 23.8049 26.3505 23.8248 26.2017C23.8616 26.2584 23.8815 26.2761 23.9169 26.3129C23.9275 26.2926 23.9403 26.2736 23.9552 26.2562C23.9552 26.1825 23.9368 26.033 23.9552 26.033C24.1792 25.9954 24.0856 25.753 24.1976 25.6411C24.2153 25.6212 24.1784 25.5652 24.1784 25.5277C24.1784 25.4908 24.1784 25.4355 24.1969 25.4355C24.457 25.3788 24.4201 25.0989 24.5881 24.9678C24.6448 24.9302 24.6625 24.8756 24.7369 24.7814C24.8858 25.0422 24.6249 25.1733 24.6065 25.3597C24.9226 25.1733 25.0162 24.7254 24.8298 24.5943C24.9042 24.5376 24.9786 24.4638 25.0353 24.3887C25.2408 24.1648 25.4634 23.9592 25.6505 23.7353C25.7816 23.568 25.856 23.3625 25.9864 23.1945C26.0615 23.101 26.2104 23.0265 26.3224 22.9698C26.6583 22.7841 26.9744 22.5786 27.1799 22.2611C27.2175 22.2235 27.2735 22.1867 27.3288 22.1491C27.3855 22.1116 27.4974 22.1116 27.5159 22.0556C27.535 22.0187 27.479 21.9252 27.4415 21.8692C27.5152 21.8316 27.5903 21.7572 27.7391 21.6821C27.6824 21.794 27.6647 21.8692 27.6271 21.9443L27.7193 22.0364C27.888 21.906 28.1488 21.7572 28.3167 21.6452C28.3167 21.6275 28.2232 21.5531 28.2232 21.5531C28.1119 21.6098 27.9439 21.7019 27.7767 21.777C27.8121 21.7203 27.8121 21.6835 27.8334 21.6651C28.0935 21.4971 28.3543 21.3291 28.6343 21.1973C29.2863 20.8996 29.9397 20.6005 30.5925 20.3206C30.7045 20.2639 30.8547 20.3022 30.9844 20.3022C31.0397 20.3022 31.0766 20.3022 31.1333 20.2837C31.4309 20.1902 31.73 20.0966 32.0284 20.0215C32.1581 19.9846 32.3069 19.9662 32.4394 19.9662C32.9972 19.9839 33.5571 19.9839 34.1163 20.0215C34.3587 20.0399 34.5827 20.0959 34.8066 20.1703C35.0937 20.2701 35.374 20.3885 35.6458 20.5247C35.9626 20.6948 36.2609 20.8805 36.56 21.086C37.1008 21.4404 37.604 21.833 38.1448 22.1505C38.6671 22.4681 39.0775 22.8975 39.4134 23.3837C39.8245 23.9621 40.2901 24.4851 40.4765 25.1946L40.7557 26.4278C40.8124 26.6517 40.9428 26.8757 40.8869 27.1365C40.7926 27.6043 40.7182 28.0897 40.6438 28.5568C40.6069 28.7446 40.5693 28.9324 40.5885 29.1167C40.6239 29.6979 40.4007 30.2011 40.1774 30.7241C40.1023 30.8921 39.9903 31.0607 39.8975 31.2471C39.9431 31.2794 39.9932 31.3047 40.0463 31.3223L40.2143 30.9863C40.2334 30.9863 40.2334 30.9863 40.2518 31.0055C40.1583 31.2663 40.0839 31.5469 39.9896 31.8085C39.767 32.3875 39.5431 32.985 39.2631 33.5449C39.1143 33.8624 38.8521 34.1239 38.6664 34.4237C38.4807 34.6845 38.3312 34.9645 38.1448 35.2076C37.9768 35.4131 37.8095 35.6186 37.5849 35.7675C37.0817 36.141 36.5593 36.5145 36.0186 36.8135C35.6833 37.0191 35.2914 37.1311 34.9186 37.2246L34.9236 37.2225ZM24.9821 36.2303L24.9637 36.2494C24.9247 36.231 24.8687 36.2125 24.8319 36.175L24.384 35.5017C24.3471 35.4464 24.3273 35.3904 24.3471 35.316C24.5527 35.6335 24.7582 35.9326 24.9814 36.2303H24.9821ZM36.5841 38.7888C37.4226 38.4344 38.1129 37.9312 38.7458 37.3515C38.84 37.2579 38.9329 37.1651 39.0448 37.0892C39.8287 36.6045 40.4056 35.9319 40.9287 35.1849C41.5254 34.3259 41.9173 33.3549 42.4028 32.4399C42.4357 32.3693 42.4729 32.3006 42.5141 32.2344C42.4765 34.3634 42.7196 36.4549 42.9989 38.5655C40.8918 38.64 38.7465 38.7144 36.5834 38.7895L36.5841 38.7888ZM55.4953 38.2289C55.4768 38.2664 55.4386 38.304 55.4209 38.3423C55.4017 38.304 55.4017 38.248 55.3833 38.1722C55.2713 38.472 55.0289 38.3224 54.861 38.3224C53.8546 38.3416 52.8283 38.3416 51.8205 38.3416C50.8509 38.3416 49.863 38.3416 48.8934 38.3586C48.5759 38.3586 48.24 38.433 47.9225 38.4521C47.1584 38.489 46.3937 38.5088 45.629 38.5266C45.5723 38.5266 45.517 38.4344 45.4235 38.3593C45.3906 38.4181 45.3532 38.4743 45.3115 38.5273C45.2916 38.4904 45.2548 38.4536 45.2172 38.3976C45.1988 38.4543 45.1797 38.5095 45.1605 38.5464H45.1067C45.0691 38.2856 44.9947 38.0432 44.9947 37.781C44.9947 37.2211 45.0514 36.6612 45.0691 36.0998C45.0882 35.839 45.0691 35.5966 45.0691 35.3528C45.1442 35.4095 45.2002 35.4471 45.2746 35.5017C45.3115 35.4287 45.349 35.3727 45.3866 35.3174C45.3866 35.3174 45.349 35.2976 45.3115 35.2607C45.3469 35.2416 45.3852 35.204 45.3852 35.1856C45.4036 35.1289 45.4419 35.0736 45.4419 35.0367C45.4419 34.9056 45.4036 34.7937 45.3852 34.6824C45.4036 34.6824 45.422 34.6824 45.4419 34.6625L45.5532 35.2224H45.6099C45.5347 35.0927 45.7771 34.98 45.5723 34.8312C45.5539 34.8121 45.5907 34.7001 45.5907 34.6441C45.534 34.5328 45.4986 34.4209 45.4419 34.2713C45.4603 34.2529 45.5163 34.2338 45.5723 34.2146C45.4979 34.1778 45.4419 34.1409 45.3859 34.1225C45.5723 33.9538 45.5723 33.8602 45.4043 33.6739C45.4426 33.6561 45.4794 33.6561 45.4794 33.6384C45.4794 33.4697 45.4794 33.3018 45.4426 33.1352C45.405 32.9467 45.4993 32.7241 45.2186 32.6108C45.2359 32.6638 45.261 32.714 45.293 32.7596C45.293 32.7596 45.2363 32.7787 45.1811 32.8163C44.9387 32.5916 45.0889 32.2918 45.0322 31.9566C45.1626 31.9942 45.2562 32.0317 45.349 32.07C45.3115 31.9382 45.2186 31.7886 45.1626 31.6206H45.0868V30.3875C45.0868 30.4066 45.2172 30.4066 45.2923 30.4257C45.2923 30.4066 45.3101 30.3882 45.3101 30.369C45.2534 30.2946 45.1789 30.2202 45.1045 30.1266L45.1421 30.0891C44.9933 29.9034 45.0677 29.6426 45.0677 29.5859V28.2783C45.2548 28.4654 44.9755 28.7078 45.2548 28.8197V28.6333H45.2356C45.2172 28.3534 45.2172 28.0734 45.1988 27.7928H45.1619C45.1428 27.831 45.1428 27.8495 45.1237 27.887H45.0868L45.1988 23.4234C45.3852 23.6658 45.59 23.8912 45.7204 24.1322C46.1499 24.9174 46.7091 25.59 47.2314 26.2995C47.6794 26.9161 48.089 27.5879 48.5001 28.223C49.0033 28.9884 49.488 29.7538 49.992 30.5193C50.3667 31.0993 50.7519 31.6725 51.1472 32.2387C51.5016 32.7419 51.8758 33.2281 52.2486 33.7142C52.5647 34.1437 52.9006 34.5732 53.2174 35.0027C53.5909 35.5258 53.9637 36.0481 54.3372 36.5527C54.5229 36.8135 54.7284 37.0751 54.9325 37.3366C55.0459 37.4854 55.2132 37.5988 55.3252 37.691C55.3075 37.691 55.2883 37.691 55.2515 37.6725C55.3082 37.7469 55.3436 37.8029 55.3819 37.8405C55.5874 37.9525 55.6058 38.0645 55.4939 38.2331L55.4953 38.2289ZM56.4464 33.5612V33.43C56.4464 33.4669 56.4648 33.5222 56.4464 33.5605V33.5612ZM57.0807 25.3257C57.0616 25.3257 56.9503 25.2123 56.9319 25.1938C56.9127 25.2505 56.9319 25.3058 56.8943 25.381C56.8752 25.3257 56.7455 25.3441 56.7455 25.2888C56.7263 25.5496 56.8568 25.8112 56.8376 26.0727C56.8943 26.0351 57.1176 26.016 57.1736 25.9607C57.1927 25.9791 57.2303 25.9976 57.2487 25.9976C56.8752 26.2782 56.9687 26.5575 57.1367 26.8764C57.1736 26.9501 57.2855 27.0996 57.1736 27.2492C57.1367 27.2867 57.1927 27.398 57.2111 27.4923H57.2657V27.5277L57.0977 27.5844C57.0609 27.5277 56.8376 27.4171 56.8376 27.3222V28.2761C57.024 28.3328 57.024 28.5936 57.0984 28.7248C57.1312 28.6793 57.1568 28.6291 57.1743 28.5759L57.1934 28.5929C57.1743 28.7049 57.1558 28.8169 57.1183 28.9296C57.0814 29.0968 57.0439 29.2464 57.0261 29.4144C57.0261 29.4328 57.0616 29.4711 57.0616 29.4888C56.8575 29.9565 56.9694 30.4782 56.895 30.9629C56.8383 31.3173 56.895 31.6929 56.8575 32.0657C56.8192 32.3832 56.7441 32.7192 56.6704 33.0367C56.6512 33.0934 56.6137 33.1111 56.5215 33.1487C56.5584 32.9247 56.5399 32.7752 56.5024 32.5696C56.4825 32.5696 56.2402 32.4392 56.221 32.4392C56.221 32.7015 56.3699 33.0558 56.4265 33.3535C56.3699 33.3351 56.1466 33.2047 56.1289 33.2047C56.0906 33.4286 56.0906 33.7277 56.0722 33.9701C56.053 34.1572 55.8858 34.3245 55.8666 34.53C55.8666 34.6434 55.9971 34.7171 55.9786 34.9042H56.1275C56.1275 34.5314 56.2961 34.1955 56.2961 33.8028H56.3514C56.3706 33.8404 56.4265 33.878 56.4081 33.8964C56.3706 34.1019 56.2947 34.3259 56.3146 34.5314C56.3146 34.6434 56.4067 34.7554 56.3713 34.8858C56.333 34.9992 56.3146 35.1105 56.2954 35.2784C56.2763 35.1849 56.2579 35.148 56.2579 35.092C56.2394 35.092 56.0715 35.0729 56.0523 35.0729C56.0339 35.1849 56.1835 35.2969 56.1643 35.3904C56.1459 35.4088 56.1275 35.4088 56.0899 35.428L55.4747 34.5307C54.9885 33.822 54.5038 33.1111 54.019 32.3832C53.8933 32.2051 53.7807 32.0179 53.6823 31.8233C53.1053 30.8296 52.4637 29.8748 51.7617 28.965C51.2216 28.2747 50.7907 27.5263 50.2875 26.7998C49.8226 26.1088 49.3562 25.4362 48.8899 24.7445C48.7219 24.5213 48.5171 24.3157 48.3675 24.0726C47.8835 23.3072 47.4533 22.5226 46.9699 21.7572C46.5588 21.1215 46.1123 20.5049 45.6829 19.889C45.534 19.6834 45.3852 19.4588 45.2349 19.2348C45.2117 19.1957 45.199 19.1513 45.1981 19.1058C45.1605 18.6948 45.123 18.2837 45.1045 17.8918C45.1045 17.5183 45.1421 17.1447 45.1421 16.7521V16.4162C45.1421 16.3226 45.1598 16.2482 45.1598 16.1539C45.1775 16.1362 45.1967 16.0987 45.2151 16.0802C44.6743 16.0802 44.1144 16.0604 43.5737 16.0802C43.2193 16.0979 43.0329 15.9484 42.7905 15.6869C42.0818 14.8839 41.5594 13.9689 40.9443 13.1099C40.3642 12.2926 39.7736 11.483 39.1724 10.6811C38.6869 10.0276 38.2015 9.39261 37.7174 8.73916C37.1759 7.99216 36.6543 7.24515 36.0944 6.49814C35.4225 5.6023 34.7322 4.70505 34.0426 3.80921C33.7237 3.39814 33.3693 3.00621 33.0149 2.57601C33.258 2.61428 33.4827 2.65113 33.706 2.67027L34.6018 2.72697C35.273 2.78154 35.9441 2.8191 36.6146 2.91124C37.1745 2.98707 37.7344 3.09905 38.3127 3.1919C39.5445 3.39743 40.7564 3.73408 41.9315 4.12601C42.6218 4.34997 43.2923 4.64906 43.9656 4.92901C45.4752 5.5456 46.9118 6.29261 48.3293 7.07647C48.7758 7.31957 49.038 7.7115 49.3725 8.06657C49.858 8.57119 50.3435 9.0751 50.8091 9.59744C51.3492 10.214 51.8524 10.8491 52.3754 11.4841C52.8411 12.044 53.3251 12.6039 53.7929 13.1652C53.9417 13.3332 54.0551 13.5387 54.1841 13.7251C54.4818 14.1737 54.8184 14.6039 55.0792 15.0887C55.2649 15.4445 55.3769 15.8556 55.5073 16.2475C55.693 16.8265 55.8801 17.3864 56.0672 17.9655C56.1969 18.395 56.3082 18.8443 56.4017 19.2908C56.4769 19.5906 56.4584 19.9074 56.5506 20.2051C56.664 20.5991 56.5506 21.0272 56.664 21.4205C56.6817 21.4581 56.6994 21.5141 56.7193 21.5517C56.7937 21.6254 56.8497 21.7005 56.7377 21.8125C56.72 21.8309 56.72 21.9046 56.7377 21.9613C56.776 21.9245 56.7944 21.8869 56.8319 21.8309C56.8319 21.8685 56.8497 21.8876 56.8497 21.9053C56.8497 21.979 56.8305 22.0542 56.8497 22.1286C56.8497 22.1654 56.8865 22.2207 56.9049 22.259C56.9425 22.2207 56.9794 22.2023 57.0538 22.1456C57.2218 22.7813 57.2409 23.4163 57.2409 24.0698C57.2409 24.6864 57.3522 25.303 57.0921 25.9005C57.1473 25.6949 57.0169 25.5071 57.0729 25.3207L57.0807 25.3257Z" fill="#DD3A0A"/>
<path fill-rule="evenodd" clip-rule="evenodd" d="M45.1635 32.5887C45.1812 32.5887 45.2003 32.6079 45.2003 32.6079L45.1812 32.5866C45.1812 32.5689 45.1812 32.5689 45.1627 32.5866L45.1635 32.5887ZM48.1097 51.0413C47.9041 51.1902 47.6986 51.3213 47.4378 51.3773C47.4179 51.3588 47.4179 51.3397 47.3995 51.3206C47.605 51.1902 47.8283 51.0598 48.0338 50.9286C48.053 50.9641 48.0905 51.0024 48.109 51.0399L48.1097 51.0413ZM13.1393 25.7338C13.3448 25.4737 13.5504 25.2122 13.7729 24.9507C13.7906 24.9691 13.9395 25.0074 13.9586 25.0251C13.7531 25.2873 13.4731 25.6417 13.2683 25.9216C13.23 25.8841 13.174 25.7537 13.1372 25.7345L13.1393 25.7338ZM7.84152 34.8871C7.69269 34.5696 7.54385 34.233 7.39502 33.9162C7.44691 33.8833 7.50323 33.858 7.56228 33.8411C7.76781 34.1387 7.85995 34.4931 8.0102 34.812C8.0102 34.812 7.86137 34.8864 7.84223 34.8864L7.84152 34.8871ZM12.5985 25.9216C12.4866 26.0903 12.3746 26.2774 12.2626 26.4461C12.2442 26.4263 12.0386 26.5198 12.0202 26.5014C12.1322 26.3334 12.4114 26.0336 12.5234 25.8664C12.5426 25.8848 12.561 25.9039 12.5985 25.9231V25.9216ZM46.1146 51.8082C46.1323 51.8082 46.1323 51.7898 46.1514 51.7898C46.2818 51.8082 46.4307 51.8266 46.5802 51.8266C46.3364 51.9946 46.1869 51.9754 46.1125 51.8082H46.1146ZM12.634 26.7062C12.6538 26.6495 12.6907 26.5942 12.7282 26.5382C12.7651 26.5382 12.8204 26.5191 12.8204 26.5191C12.8962 26.3887 12.8962 26.2952 12.9706 26.1832C12.9522 26.1647 12.9331 26.1647 12.9139 26.1456C12.8027 26.2222 12.6907 26.3157 12.5787 26.3901C12.6163 26.427 12.6163 26.4468 12.6163 26.4837C12.4674 26.4645 12.4107 26.5404 12.3363 26.7445C12.3179 26.8012 12.2243 26.8196 12.1308 26.8933C12.1124 26.9316 12.0939 27.0251 12.0564 27.118L12.0755 27.1378C12.0379 27.1754 11.9819 27.1945 11.9819 27.1945C11.87 27.3058 11.7396 27.4001 11.6276 27.5113C11.6092 27.568 11.5907 27.6233 11.5907 27.6793C11.7218 27.5489 11.9451 27.3058 12.1131 27.1563L12.1322 27.1754C12.2066 27.0634 12.2626 26.9514 12.3377 26.8395C12.3554 26.8579 12.3554 26.8763 12.3746 26.8962C12.3179 27.045 12.2626 27.2123 12.2066 27.3618C12.1676 27.3802 12.1116 27.4185 12.1116 27.3994C12.0372 27.4561 11.9812 27.5298 11.9061 27.5858L11.5709 27.8097C11.3845 27.9777 11.1981 28.1265 10.9926 28.2952C10.8621 28.5007 10.7317 28.6871 10.5815 28.9302C10.8062 28.8735 10.8621 28.9678 10.8437 29.1549C11.1045 29.1918 11.1237 28.9869 11.1981 28.8374C11.2165 28.7991 11.2356 28.724 11.2725 28.7056C11.4405 28.5567 11.6269 28.4263 11.8133 28.2768C11.8508 28.2392 11.8508 28.1634 11.8508 28.1081C11.8508 28.0897 11.7566 28.0897 11.7006 28.0705C11.8685 27.8834 12.1116 27.5673 12.2789 27.3618C12.3725 27.3051 12.4653 27.23 12.4653 27.174C12.4469 26.9684 12.5773 26.9132 12.7275 26.838C12.6524 26.7813 12.6333 26.7268 12.6333 26.7083L12.634 26.7062Z" fill="#DD3735"/>
<path fill-rule="evenodd" clip-rule="evenodd" d="M13.008 26.5007C12.9336 26.6311 12.8592 26.7431 12.7848 26.8742L12.6728 26.8175C12.5984 27.2463 12.3368 27.6198 12.076 27.6942C12.1504 27.7318 12.2249 27.7694 12.2816 27.7509C12.3368 27.7318 12.3737 27.6375 12.4113 27.5823L12.9145 26.8537L13.0831 26.573L13.0087 26.4986L13.008 26.5007ZM6.79808 34.6994C6.89163 34.6994 6.98519 34.7178 7.09575 34.7178C7.09575 34.6434 7.19001 34.6611 7.19001 34.5874H7.24671C7.24671 34.6809 7.26514 34.7554 7.26514 34.8496H6.87391C6.85478 34.8305 6.78036 34.7178 6.79879 34.6994H6.79808ZM6.64925 33.8404C6.59255 33.7837 6.50041 33.7284 6.50041 33.6724C6.48128 33.5987 6.53727 33.5059 6.59255 33.4123C6.63082 33.5427 6.64925 33.6547 6.6861 33.7858C6.66696 33.8035 6.64854 33.8227 6.64854 33.8411L6.64925 33.8404ZM7.11559 32.6447C7.19001 32.8333 7.26443 33.0388 7.33955 33.2259C7.28654 33.2432 7.23639 33.2683 7.19072 33.3003C7.1163 33.1132 7.02275 32.9077 6.94833 32.7213C6.99872 32.6852 7.05584 32.6597 7.1163 32.6462L7.11559 32.6447ZM48.6332 50.5006C48.7254 50.4637 48.8374 50.4439 48.9876 50.4085C48.8189 50.5381 48.6885 50.6317 48.5765 50.7437C48.5574 50.7253 48.539 50.7061 48.5198 50.7061C48.5574 50.6317 48.595 50.5757 48.6332 50.5006ZM25.7085 11.0376C25.8198 10.9624 25.9141 10.9064 26.0253 10.832L26.0622 10.8689C25.9488 11.0177 25.8566 11.1666 25.7255 11.3544C25.7071 11.2247 25.7071 11.1488 25.688 11.0567C25.6695 11.0567 25.688 11.0567 25.7071 11.0383L25.7085 11.0376ZM31.1729 20.4871C31.3408 20.412 31.5088 20.3383 31.7136 20.244C31.6952 20.356 31.6952 20.4311 31.6952 20.5063C31.635 20.4844 31.572 20.4716 31.5081 20.468C31.3961 20.4871 31.1906 20.6367 31.097 20.6551C31.0793 20.6551 31.1722 20.5063 31.1722 20.4871H31.1729ZM45.1633 36.3245C45.2001 36.5109 45.5545 36.6044 45.2001 36.7908C45.2568 36.8298 45.3114 36.8475 45.3674 36.8858C45.3629 36.914 45.3501 36.9402 45.3305 36.9609C45.293 36.9786 45.2186 37.0162 45.1817 36.9964C45.1626 36.9964 45.125 36.9227 45.125 36.8851C45.125 36.7171 45.1441 36.5492 45.1626 36.3252L45.1633 36.3245Z" fill="#DD3735"/>
</g>
<defs>
<filter id="filter0_d_232_649" x="0" y="0" width="63.9902" height="63.9902" filterUnits="userSpaceOnUse" color-interpolation-filters="sRGB">
<feFlood flood-opacity="0" result="BackgroundImageFix"/>
<feColorMatrix in="SourceAlpha" type="matrix" values="0 0 0 0 0 0 0 0 0 0 0 0 0 0 0 0 0 0 127 0" result="hardAlpha"/>
<feOffset dy="4"/>
<feGaussianBlur stdDeviation="2"/>
<feComposite in2="hardAlpha" operator="out"/>
<feColorMatrix type="matrix" values="0 0 0 0 0 0 0 0 0 0 0 0 0 0 0 0 0 0 0.25 0"/>
<feBlend mode="normal" in2="BackgroundImageFix" result="effect1_dropShadow_232_649"/>
<feBlend mode="normal" in="SourceGraphic" in2="effect1_dropShadow_232_649" result="shape"/>
</filter>
<clipPath id="clip0_232_649">
<rect width="55.99" height="55.99" fill="white" transform="translate(4)"/>
</clipPath>
</defs>
</svg>
