<svg width="55" height="56" viewBox="0 0 55 56" fill="none" xmlns="http://www.w3.org/2000/svg">
<path d="M18.3962 43.4656C18.3962 43.6844 18.1411 43.8594 17.8196 43.8594C17.4536 43.8922 17.1986 43.7172 17.1986 43.4656C17.1986 43.2469 17.4536 43.0719 17.7752 43.0719C18.1079 43.0391 18.3962 43.2141 18.3962 43.4656ZM14.9476 42.9734C14.87 43.1922 15.0917 43.4438 15.4244 43.5094C15.7127 43.6188 16.0454 43.5094 16.1119 43.2906C16.1784 43.0719 15.9677 42.8203 15.6351 42.7219C15.3468 42.6453 15.0252 42.7547 14.9476 42.9734ZM19.8488 42.7875C19.5272 42.8641 19.3054 43.0719 19.3387 43.3234C19.372 43.5422 19.6603 43.6844 19.9929 43.6078C20.3145 43.5313 20.5363 43.3234 20.503 43.1047C20.4698 42.8969 20.1704 42.7547 19.8488 42.7875ZM27.1452 0.875C11.7651 0.875 0 12.3922 0 27.5625C0 39.6922 7.73992 50.0719 18.7954 53.725C20.2147 53.9766 20.7137 53.1125 20.7137 52.4016C20.7137 51.7234 20.6804 47.9828 20.6804 45.6859C20.6804 45.6859 12.9183 47.3266 11.2883 42.4266C11.2883 42.4266 10.0242 39.2438 8.20565 38.4234C8.20565 38.4234 5.66633 36.7063 8.38306 36.7391C8.38306 36.7391 11.1442 36.9578 12.6633 39.5609C15.0917 43.7828 19.1613 42.5688 20.747 41.8469C21.002 40.0969 21.7228 38.8828 22.5212 38.1609C16.3226 37.4828 10.0685 36.5969 10.0685 26.075C10.0685 23.0672 10.9113 21.5578 12.6855 19.6328C12.3972 18.9219 11.4546 15.9906 12.9738 12.2063C15.2913 11.4953 20.625 15.1594 20.625 15.1594C22.8427 14.5469 25.2268 14.2297 27.5887 14.2297C29.9506 14.2297 32.3347 14.5469 34.5524 15.1594C34.5524 15.1594 39.8861 11.4844 42.2036 12.2063C43.7228 16.0016 42.7802 18.9219 42.4919 19.6328C44.2661 21.5688 45.3528 23.0781 45.3528 26.075C45.3528 36.6297 38.8216 37.4719 32.623 38.1609C33.6431 39.025 34.5081 40.6656 34.5081 43.2359C34.5081 46.9219 34.4748 51.4828 34.4748 52.3797C34.4748 53.0906 34.9849 53.9547 36.3931 53.7031C47.4819 50.0719 55 39.6922 55 27.5625C55 12.3922 42.5252 0.875 27.1452 0.875ZM10.7782 38.5984C10.6341 38.7078 10.6673 38.9594 10.8558 39.1672C11.0333 39.3422 11.2883 39.4188 11.4325 39.2766C11.5766 39.1672 11.5433 38.9156 11.3548 38.7078C11.1774 38.5328 10.9224 38.4563 10.7782 38.5984ZM9.58065 37.7125C9.50302 37.8547 9.61391 38.0297 9.83569 38.1391C10.0131 38.2484 10.2349 38.2156 10.3125 38.0625C10.3901 37.9203 10.2792 37.7453 10.0575 37.6359C9.83569 37.5703 9.65827 37.6031 9.58065 37.7125ZM13.1734 41.6063C12.996 41.7484 13.0625 42.0766 13.3175 42.2844C13.5726 42.5359 13.8942 42.5688 14.0383 42.3938C14.1825 42.2516 14.1159 41.9234 13.8942 41.7156C13.6502 41.4641 13.3175 41.4313 13.1734 41.6063ZM11.9093 39.9984C11.7319 40.1078 11.7319 40.3922 11.9093 40.6438C12.0867 40.8953 12.3861 41.0047 12.5302 40.8953C12.7077 40.7531 12.7077 40.4688 12.5302 40.2172C12.375 39.9656 12.0867 39.8563 11.9093 39.9984Z" fill="#A6A6A6"/>
</svg>
