<svg width="50" height="56" viewBox="0 0 50 56" fill="none" xmlns="http://www.w3.org/2000/svg">
<path d="M46.4286 3.5H3.56027C1.59598 3.5 0 5.08594 0 7.03281V48.9672C0 50.9141 1.59598 52.5 3.56027 52.5H46.4286C48.3929 52.5 50 50.9141 50 48.9672V7.03281C50 5.08594 48.3929 3.5 46.4286 3.5ZM15.1116 45.5H7.70089V22.1156H15.1228V45.5H15.1116ZM11.4062 18.9219C9.02902 18.9219 7.10938 17.0297 7.10938 14.7109C7.10938 12.3922 9.02902 10.5 11.4062 10.5C13.7723 10.5 15.7031 12.3922 15.7031 14.7109C15.7031 17.0406 13.7835 18.9219 11.4062 18.9219V18.9219ZM42.8906 45.5H35.4799V34.125C35.4799 31.4125 35.4241 27.9234 31.6295 27.9234C27.7679 27.9234 27.1763 30.8766 27.1763 33.9281V45.5H19.7656V22.1156H26.875V25.3094H26.9754C27.9687 23.4719 30.3906 21.5359 33.9955 21.5359C41.4955 21.5359 42.8906 26.3812 42.8906 32.6812V45.5V45.5Z" fill="#A6A6A6"/>
</svg>
