<svg width="1440" height="484" viewBox="0 0 1440 484" fill="none" xmlns="http://www.w3.org/2000/svg">
<g clip-path="url(#clip0_606_39)">
<g clip-path="url(#clip1_606_39)">
<path d="M90.3365 557.345L129.987 552.067C169.637 546.788 248.937 536.232 327.538 520.421C406.087 504.214 484.067 483.745 559.105 441.17C634.223 399.19 706.397 335.106 787.848 340.706C869.221 345.712 959.87 420.403 1039.13 409.549C1118.47 399.289 1186.42 303.485 1260.14 250.998C1333.81 198.114 1413.11 187.557 1452.76 182.279L1492.41 177L1534.63 494.202L1494.98 499.48C1455.33 504.759 1376.03 515.316 1296.73 525.873C1217.43 536.43 1138.13 546.986 1058.83 557.543C979.532 568.1 900.231 578.657 820.931 589.214C741.631 599.771 662.33 610.328 583.03 620.885C503.73 631.442 424.429 641.998 345.129 652.555C265.828 663.112 186.528 673.669 146.878 678.948L107.228 684.226L90.3365 557.345Z" fill="#7149E9"/>
</g>
<g filter="url(#filter0_d_606_39)">
<path d="M214 642.195L274.117 651.21C334.429 660.573 454.369 678.079 540.861 636.036C627.157 593.644 679.516 490.831 757.976 434.489C836.632 378.495 940.901 368.101 1043.06 353.958C1145.03 339.466 1244.4 320.353 1330.7 277.961C1417.19 235.918 1490.12 169.723 1526.92 137.236L1563.53 104.401L1610.55 188.101L1568.7 211.608C1526.85 235.114 1443.15 282.127 1359.45 329.14C1275.74 376.153 1192.04 423.167 1108.34 470.18C1024.64 517.193 940.943 564.206 857.242 611.219C773.542 658.232 689.841 705.245 606.141 752.258C522.44 799.271 438.74 846.284 396.889 869.79L355.039 893.297L214 642.195Z" fill="#8C6AF3"/>
</g>
<g filter="url(#filter1_d_606_39)">
<path d="M463.712 927.328L503.687 900.757C543.661 874.186 623.611 821.044 685.847 741.252C748.082 661.46 792.604 555.019 872.553 501.877C952.503 448.735 1067.88 448.893 1147.83 395.751C1227.78 342.609 1272.3 236.167 1328.61 147.464C1385.15 59.0948 1452.92 -12.3689 1487.19 -47.5178L1521.24 -82.9998L1680.67 156.849L1640.69 183.42C1600.72 209.991 1520.77 263.133 1440.82 316.275C1360.87 369.417 1280.92 422.559 1200.97 475.7C1121.02 528.842 1041.07 581.984 961.123 635.126C881.174 688.268 801.224 741.41 721.275 794.552C641.325 847.694 561.375 900.836 521.401 927.407L481.426 953.978L463.712 927.328Z" fill="#8261E7"/>
</g>
<path d="M1 419.413L64.625 424.845C128.25 430.686 255.5 440.934 382.75 430.379C510 419.413 637.25 386.62 764.5 392.051C891.75 397.893 1019 440.934 1146.25 430.379C1273.5 419.413 1404.46 417.876 1468.09 385.083L1528 361V485H1464.38C1400.75 485 1273.5 485 1146.25 485C1019 485 891.75 485 764.5 485C637.25 485 510 485 382.75 485C255.5 485 128.25 485 64.625 485H1V419.413Z" fill="#CED4DA"/>
</g>
<defs>
<filter id="filter0_d_606_39" x="203" y="97.4004" width="1418.55" height="810.896" filterUnits="userSpaceOnUse" color-interpolation-filters="sRGB">
<feFlood flood-opacity="0" result="BackgroundImageFix"/>
<feColorMatrix in="SourceAlpha" type="matrix" values="0 0 0 0 0 0 0 0 0 0 0 0 0 0 0 0 0 0 127 0" result="hardAlpha"/>
<feOffset dy="4"/>
<feGaussianBlur stdDeviation="5.5"/>
<feComposite in2="hardAlpha" operator="out"/>
<feColorMatrix type="matrix" values="0 0 0 0 0 0 0 0 0 0 0 0 0 0 0 0 0 0 0.05 0"/>
<feBlend mode="normal" in2="BackgroundImageFix" result="effect1_dropShadow_606_39"/>
<feBlend mode="normal" in="SourceGraphic" in2="effect1_dropShadow_606_39" result="shape"/>
</filter>
<filter id="filter1_d_606_39" x="434.712" y="-108" width="1274.96" height="1094.98" filterUnits="userSpaceOnUse" color-interpolation-filters="sRGB">
<feFlood flood-opacity="0" result="BackgroundImageFix"/>
<feColorMatrix in="SourceAlpha" type="matrix" values="0 0 0 0 0 0 0 0 0 0 0 0 0 0 0 0 0 0 127 0" result="hardAlpha"/>
<feOffset dy="4"/>
<feGaussianBlur stdDeviation="14.5"/>
<feComposite in2="hardAlpha" operator="out"/>
<feColorMatrix type="matrix" values="0 0 0 0 0 0 0 0 0 0 0 0 0 0 0 0 0 0 0.05 0"/>
<feBlend mode="normal" in2="BackgroundImageFix" result="effect1_dropShadow_606_39"/>
<feBlend mode="normal" in="SourceGraphic" in2="effect1_dropShadow_606_39" result="shape"/>
</filter>
<clipPath id="clip0_606_39">
<rect width="1440" height="484" fill="white"/>
</clipPath>
<clipPath id="clip1_606_39">
<rect width="1440" height="320" fill="white" transform="translate(65 367.024) rotate(-7.58293)"/>
</clipPath>
</defs>
</svg>
