<svg width="612" height="617" viewBox="0 0 612 617" fill="none" xmlns="http://www.w3.org/2000/svg">
<g clip-path="url(#clip0_614_19)">
<g clip-path="url(#clip1_614_19)">
<path d="M-715.663 701.345L-676.013 696.067C-636.363 690.788 -557.063 680.232 -478.462 664.421C-399.913 648.214 -321.933 627.745 -246.895 585.17C-171.777 543.19 -99.6029 479.106 -18.1516 484.706C63.2206 489.712 153.87 564.403 233.13 553.549C312.47 543.289 380.422 447.485 454.141 394.998C527.806 342.114 607.107 331.557 646.757 326.279L686.407 321L728.635 638.202L688.984 643.48C649.334 648.759 570.034 659.316 490.733 669.873C411.433 680.43 332.133 690.986 252.832 701.543C173.532 712.1 94.2314 722.657 14.9311 733.214C-64.3693 743.771 -143.67 754.328 -222.97 764.885C-302.27 775.442 -381.571 785.998 -460.871 796.555C-540.172 807.112 -619.472 817.669 -659.122 822.948L-698.772 828.226L-715.663 701.345Z" fill="#7149E9"/>
</g>
<g filter="url(#filter0_d_614_19)">
<path d="M-437.5 778.635L-377.383 787.649C-317.071 797.013 -197.131 814.519 -110.639 772.476C-24.3429 730.083 28.0156 627.27 106.476 570.928C185.132 514.935 289.401 504.54 391.564 490.397C493.531 475.905 592.903 456.793 679.199 414.401C765.691 372.357 838.617 306.163 875.423 273.676L912.034 240.84L959.047 324.541L917.196 348.047C875.346 371.554 791.646 418.567 707.945 465.58C624.245 512.593 540.544 559.606 456.844 606.619C373.143 653.632 289.443 700.645 205.742 747.658C122.042 794.671 38.3411 841.684 -45.3594 888.697C-129.06 935.71 -212.76 982.723 -254.611 1006.23L-296.461 1029.74L-437.5 778.635Z" fill="#8C6AF3"/>
</g>
<g filter="url(#filter1_d_614_19)">
<path d="M-342.288 1071.33L-302.313 1044.76C-262.339 1018.19 -182.389 965.044 -120.153 885.252C-57.9178 805.46 -13.3962 699.019 66.5534 645.877C146.503 592.735 261.881 592.893 341.83 539.751C421.78 486.609 466.301 380.167 522.614 291.464C579.148 203.095 646.919 131.631 681.192 96.4822L715.244 61.0002L874.67 300.849L834.695 327.42C794.72 353.991 714.77 407.133 634.821 460.275C554.871 513.417 474.922 566.559 394.972 619.7C315.022 672.842 235.073 725.984 155.123 779.126C75.1737 832.268 -4.7759 885.41 -84.7255 938.552C-164.675 991.694 -244.625 1044.84 -284.599 1071.41L-324.574 1097.98L-342.288 1071.33Z" fill="#8261E7"/>
</g>
<path d="M-328 571.413L-264.375 576.845C-200.75 582.686 -73.5 592.934 53.75 582.379C181 571.413 308.25 538.62 435.5 544.051C562.75 549.893 690 592.934 817.25 582.379C944.5 571.413 1075.46 569.876 1139.09 537.083L1199 513V637H1135.38C1071.75 637 944.5 637 817.25 637C690 637 562.75 637 435.5 637C308.25 637 181 637 53.75 637C-73.5 637 -200.75 637 -264.375 637H-328V571.413Z" fill="#CED4DA"/>
</g>
<defs>
<filter id="filter0_d_614_19" x="-448.5" y="233.84" width="1418.55" height="810.896" filterUnits="userSpaceOnUse" color-interpolation-filters="sRGB">
<feFlood flood-opacity="0" result="BackgroundImageFix"/>
<feColorMatrix in="SourceAlpha" type="matrix" values="0 0 0 0 0 0 0 0 0 0 0 0 0 0 0 0 0 0 127 0" result="hardAlpha"/>
<feOffset dy="4"/>
<feGaussianBlur stdDeviation="5.5"/>
<feComposite in2="hardAlpha" operator="out"/>
<feColorMatrix type="matrix" values="0 0 0 0 0 0 0 0 0 0 0 0 0 0 0 0 0 0 0.05 0"/>
<feBlend mode="normal" in2="BackgroundImageFix" result="effect1_dropShadow_614_19"/>
<feBlend mode="normal" in="SourceGraphic" in2="effect1_dropShadow_614_19" result="shape"/>
</filter>
<filter id="filter1_d_614_19" x="-371.288" y="36" width="1274.96" height="1094.98" filterUnits="userSpaceOnUse" color-interpolation-filters="sRGB">
<feFlood flood-opacity="0" result="BackgroundImageFix"/>
<feColorMatrix in="SourceAlpha" type="matrix" values="0 0 0 0 0 0 0 0 0 0 0 0 0 0 0 0 0 0 127 0" result="hardAlpha"/>
<feOffset dy="4"/>
<feGaussianBlur stdDeviation="14.5"/>
<feComposite in2="hardAlpha" operator="out"/>
<feColorMatrix type="matrix" values="0 0 0 0 0 0 0 0 0 0 0 0 0 0 0 0 0 0 0.05 0"/>
<feBlend mode="normal" in2="BackgroundImageFix" result="effect1_dropShadow_614_19"/>
<feBlend mode="normal" in="SourceGraphic" in2="effect1_dropShadow_614_19" result="shape"/>
</filter>
<clipPath id="clip0_614_19">
<rect width="612" height="617" fill="white"/>
</clipPath>
<clipPath id="clip1_614_19">
<rect width="1440" height="320" fill="white" transform="translate(-741 511.024) rotate(-7.58293)"/>
</clipPath>
</defs>
</svg>
