<svg width="57" height="60" viewBox="0 0 57 60" fill="none" xmlns="http://www.w3.org/2000/svg">
<g clip-path="url(#clip0_232_577)" filter="url(#filter0_d_232_577)">
<path d="M4 3.4375V51.5625H52.125V3.4375H4ZM30.1895 40.9707C30.1895 45.6543 27.4395 47.792 23.4326 47.792C19.8125 47.792 17.7178 45.9229 16.6436 43.6562L20.3281 41.4326C21.0371 42.6895 21.6816 43.7529 23.2393 43.7529C24.7217 43.7529 25.667 43.1729 25.667 40.9062V25.5342H30.1895V40.9707V40.9707ZM40.8887 47.792C36.6885 47.792 33.9707 45.7939 32.6494 43.1729L36.334 41.0459C37.3008 42.625 38.5684 43.7959 40.792 43.7959C42.6611 43.7959 43.8643 42.8613 43.8643 41.5615C43.8643 40.0146 42.6396 39.4668 40.5664 38.5537L39.4385 38.0703C36.1729 36.6846 34.0137 34.9336 34.0137 31.249C34.0137 27.8545 36.6025 25.2764 40.6309 25.2764C43.5098 25.2764 45.5723 26.2754 47.0547 28.8965L43.5312 31.1523C42.7578 29.7666 41.9199 29.2188 40.6201 29.2188C39.2988 29.2188 38.4609 30.0566 38.4609 31.1523C38.4609 32.5059 39.2988 33.0537 41.2432 33.9023L42.3711 34.3857C46.2168 36.0293 48.376 37.7158 48.376 41.4971C48.376 45.5576 45.1748 47.792 40.8887 47.792V47.792Z" fill="#E8D848"/>
</g>
<defs>
<filter id="filter0_d_232_577" x="0" y="0" width="56.125" height="63" filterUnits="userSpaceOnUse" color-interpolation-filters="sRGB">
<feFlood flood-opacity="0" result="BackgroundImageFix"/>
<feColorMatrix in="SourceAlpha" type="matrix" values="0 0 0 0 0 0 0 0 0 0 0 0 0 0 0 0 0 0 127 0" result="hardAlpha"/>
<feOffset dy="4"/>
<feGaussianBlur stdDeviation="2"/>
<feComposite in2="hardAlpha" operator="out"/>
<feColorMatrix type="matrix" values="0 0 0 0 0 0 0 0 0 0 0 0 0 0 0 0 0 0 0.25 0"/>
<feBlend mode="normal" in2="BackgroundImageFix" result="effect1_dropShadow_232_577"/>
<feBlend mode="normal" in="SourceGraphic" in2="effect1_dropShadow_232_577" result="shape"/>
</filter>
<clipPath id="clip0_232_577">
<rect width="48.125" height="55" fill="white" transform="translate(4)"/>
</clipPath>
</defs>
</svg>
