<svg width="64" height="72" viewBox="0 0 64 72" fill="none" xmlns="http://www.w3.org/2000/svg">
<g filter="url(#filter0_d_232_645)">
<path d="M31.9999 63.5001C31.1624 63.5001 30.3124 63.2751 29.5749 62.8501L21.8624 58.2876C20.7124 57.6376 21.2749 57.4126 21.6499 57.2876C23.1874 56.7501 23.4999 56.6376 25.1374 55.7001C25.3124 55.6001 25.5374 55.6376 25.7124 55.7501L31.6374 59.2626C31.8499 59.3876 32.1499 59.3876 32.3499 59.2626L55.4374 45.9376C55.6499 45.8126 55.7874 45.5626 55.7874 45.3126V18.6626C55.7874 18.4001 55.6499 18.1626 55.4249 18.0251L32.3499 4.7126C32.1374 4.5876 31.8499 4.5876 31.6374 4.7126L8.5749 18.0376C8.3499 18.1626 8.2124 18.4126 8.2124 18.6751V45.3126C8.2124 45.5626 8.3499 45.8126 8.5749 45.9251L14.8999 49.5751C18.3374 51.2876 20.4374 49.2751 20.4374 47.2376V20.9376C20.4374 20.5626 20.7374 20.2751 21.1124 20.2751H24.0374C24.3999 20.2751 24.7124 20.5626 24.7124 20.9376V47.2501C24.7124 51.8251 22.2124 54.4501 17.8749 54.4501C16.5374 54.4501 15.4874 54.4501 12.5624 53.0001L6.5124 49.5126C5.0124 48.6501 4.0874 47.0376 4.0874 45.3001V18.6626C4.0874 16.9376 5.0124 15.3126 6.5124 14.4501L29.5749 1.1251C31.0374 0.300098 32.9749 0.300098 34.4249 1.1251L57.5124 14.4626C59.0124 15.3251 59.9374 16.9376 59.9374 18.6751V45.3126C59.9374 47.0376 59.0124 48.6501 57.5124 49.5251L34.4249 62.8501C33.6874 63.2751 32.8499 63.5001 31.9999 63.5001ZM50.6374 37.2376C50.6374 32.2501 47.2624 30.9251 40.1749 29.9876C32.9999 29.0376 32.2749 28.5501 32.2749 26.8751C32.2749 25.4876 32.8874 23.6376 38.1999 23.6376C42.9374 23.6376 44.6874 24.6626 45.4124 27.8626C45.4749 28.1626 45.7499 28.3876 46.0624 28.3876H49.0624C49.2499 28.3876 49.4249 28.3126 49.5499 28.1751C49.6749 28.0376 49.7374 27.8501 49.7249 27.6626C49.2624 22.1501 45.5999 19.5876 38.1999 19.5876C31.6124 19.5876 27.6874 22.3626 27.6874 27.0251C27.6874 32.0751 31.5999 33.4751 37.9124 34.1001C45.4749 34.8376 46.0624 35.9501 46.0624 37.4376C46.0624 40.0126 43.9874 41.1126 39.1249 41.1126C33.0124 41.1126 31.6749 39.5751 31.2249 36.5376C31.1749 36.2126 30.8999 35.9751 30.5624 35.9751H27.5749C27.1999 35.9751 26.9124 36.2751 26.9124 36.6376C26.9124 40.5251 29.0249 45.1626 39.1374 45.1626C46.4374 45.1501 50.6374 42.2626 50.6374 37.2376V37.2376Z" fill="#46E61E"/>
</g>
<defs>
<filter id="filter0_d_232_645" x="0" y="0" width="64" height="72" filterUnits="userSpaceOnUse" color-interpolation-filters="sRGB">
<feFlood flood-opacity="0" result="BackgroundImageFix"/>
<feColorMatrix in="SourceAlpha" type="matrix" values="0 0 0 0 0 0 0 0 0 0 0 0 0 0 0 0 0 0 127 0" result="hardAlpha"/>
<feOffset dy="4"/>
<feGaussianBlur stdDeviation="2"/>
<feComposite in2="hardAlpha" operator="out"/>
<feColorMatrix type="matrix" values="0 0 0 0 0 0 0 0 0 0 0 0 0 0 0 0 0 0 0.25 0"/>
<feBlend mode="normal" in2="BackgroundImageFix" result="effect1_dropShadow_232_645"/>
<feBlend mode="normal" in="SourceGraphic" in2="effect1_dropShadow_232_645" result="shape"/>
</filter>
</defs>
</svg>
