<?xml version="1.0" encoding="utf-8"?>
<!-- Generator: Adobe Illustrator 25.2.3, SVG Export Plug-In . SVG Version: 6.00 Build 0)  -->
<svg version="1.1" id="Layer_1" xmlns="http://www.w3.org/2000/svg" xmlns:xlink="http://www.w3.org/1999/xlink" x="0px" y="0px"
	 viewBox="0 0 158 158" style="enable-background:new 0 0 158 158;" xml:space="preserve">
<style type="text/css">
	.st0{fill:#FFFFFF;}
	.st1{fill:#EB1933;}
	.st2{fill:#2151A1;}
</style>
<g transform="matrix(1.44 0 0 1.44 -73.5 -151)">
	<circle class="st0" cx="105.9" cy="160" r="55"/>
	<path class="st1" d="M136.9,119c-8.5-6.4-19-10.2-30.6-10.2c-28.2,0-51,22.9-51,51c0,10.9,3.5,21.5,10,30.3
		C99.7,180,126.6,153.3,137,119"/>
	<path class="st2" d="M148.9,133c4.3,14.4-0.1,29.5-13,39.4c-15.4,11.3-38,11.4-69,21c17.7,21.9,49.8,25.3,71.7,7.6
		c20.6-16.6,25-46.2,10.3-68.1"/>
</g>
</svg>
