<svg width="45" height="63" viewBox="0 0 45 63" fill="none" xmlns="http://www.w3.org/2000/svg">
<g clip-path="url(#clip0_232_671)" filter="url(#filter0_d_232_671)">
<path d="M13.1706 54.9998C18.2306 54.9998 22.3372 50.8931 22.3372 45.8331V36.6665H13.1706C8.11057 36.6665 4.00391 40.7732 4.00391 45.8331C4.00391 50.8931 8.11057 54.9998 13.1706 54.9998Z" fill="#0ACF83"/>
<path d="M4.00391 27.5001C4.00391 22.4402 8.11057 18.3335 13.1706 18.3335H22.3372V36.6668H13.1706C8.11057 36.6668 4.00391 32.5601 4.00391 27.5001Z" fill="#A259FF"/>
<path d="M4.00391 9.16666C4.00391 4.10666 8.11057 0 13.1706 0H22.3372V18.3333H13.1706C8.11057 18.3333 4.00391 14.2267 4.00391 9.16666Z" fill="#F24E1E"/>
<path d="M22.3369 0H31.5036C36.5636 0 40.6703 4.10666 40.6703 9.16666C40.6703 14.2267 36.5636 18.3333 31.5036 18.3333H22.3369V0Z" fill="#FF7262"/>
<path d="M40.6703 27.5001C40.6703 32.5601 36.5636 36.6668 31.5036 36.6668C26.4436 36.6668 22.3369 32.5601 22.3369 27.5001C22.3369 22.4402 26.4436 18.3335 31.5036 18.3335C36.5636 18.3335 40.6703 22.4402 40.6703 27.5001Z" fill="#1ABCFE"/>
</g>
<defs>
<filter id="filter0_d_232_671" x="0" y="0" width="44.6738" height="63" filterUnits="userSpaceOnUse" color-interpolation-filters="sRGB">
<feFlood flood-opacity="0" result="BackgroundImageFix"/>
<feColorMatrix in="SourceAlpha" type="matrix" values="0 0 0 0 0 0 0 0 0 0 0 0 0 0 0 0 0 0 127 0" result="hardAlpha"/>
<feOffset dy="4"/>
<feGaussianBlur stdDeviation="2"/>
<feComposite in2="hardAlpha" operator="out"/>
<feColorMatrix type="matrix" values="0 0 0 0 0 0 0 0 0 0 0 0 0 0 0 0 0 0 0.25 0"/>
<feBlend mode="normal" in2="BackgroundImageFix" result="effect1_dropShadow_232_671"/>
<feBlend mode="normal" in="SourceGraphic" in2="effect1_dropShadow_232_671" result="shape"/>
</filter>
<clipPath id="clip0_232_671">
<rect width="36.674" height="55" fill="white" transform="translate(4)"/>
</clipPath>
</defs>
</svg>
