<svg width="56" height="56" viewBox="0 0 56 56" fill="none" xmlns="http://www.w3.org/2000/svg">
<g clip-path="url(#clip0_235_2)">
<path d="M54.9374 17.4675L29.3437 0.405031C28.4701 -0.132547 27.5378 -0.137469 26.6562 0.405031L1.06247 17.4675C0.406219 17.9049 0 18.6863 0 19.4675V36.5298C0 37.3111 0.406219 38.0924 1.06258 38.5299L26.6563 55.5948C27.5299 56.1324 28.4622 56.1373 29.3438 55.5948L54.9375 38.5299C55.5938 38.0925 56.0001 37.3111 56.0001 36.5298V19.4675C56 18.6863 55.5938 17.9049 54.9374 17.4675V17.4675ZM30.4062 6.90486L49.25 19.4675L40.8438 25.0925L30.4062 18.1237V6.90486ZM25.5938 6.90486V18.1237L15.1562 25.0925L6.74997 19.4675L25.5938 6.90486ZM4.8125 23.9675L10.8438 27.9987L4.8125 32.0299V23.9675ZM25.5938 49.0925L6.74997 36.53L15.1562 30.9049L25.5938 37.8737V49.0925ZM28 33.6862L19.4999 27.9987L28 22.3112L36.5001 27.9987L28 33.6862ZM30.4062 49.0925V37.8737L40.8438 30.9049L49.25 36.53L30.4062 49.0925ZM51.1875 32.0299L45.1562 27.9987L51.1875 23.9675V32.0299Z" fill="#A6A6A6"/>
</g>
<defs>
<clipPath id="clip0_235_2">
<rect width="56" height="56" fill="white"/>
</clipPath>
</defs>
</svg>
