<svg width="984" height="503" viewBox="0 0 984 503" fill="none" xmlns="http://www.w3.org/2000/svg">
<g clip-path="url(#clip0_604_2)">
<path d="M680.563 442.479L669.112 460.483L675.782 437.046C661.698 422.35 642.202 411.6 642.202 411.6C642.202 411.6 618.194 451.056 624.656 475.327C631.117 499.598 647.802 504.231 665.601 499.492C683.399 494.754 695.572 482.438 689.11 458.168C687.672 452.765 684.548 447.462 680.563 442.479Z" fill="#F2F2F2"/>
<path d="M665.411 462.278L665.73 463.474C669.361 477.399 669.904 488.874 667.336 497.739C667.301 497.869 667.259 497.994 667.223 498.124L666.625 497.947L666.051 497.77C668.96 488.161 667.662 476.019 664.498 463.872C664.399 463.48 664.3 463.081 664.188 462.686C662.803 457.556 661.107 452.446 659.26 447.534C659.12 447.152 658.973 446.766 658.826 446.381C656.355 439.91 653.655 433.817 651.153 428.566C650.978 428.194 650.797 427.823 650.618 427.459C646.347 418.588 642.726 412.302 641.913 410.914C641.817 410.743 641.76 410.651 641.748 410.628L642.268 410.319L642.272 410.311L642.798 410C642.811 410.022 643.001 410.333 643.334 410.917C644.592 413.093 647.934 419.021 651.786 426.989C651.958 427.349 652.139 427.72 652.315 428.092C654.349 432.351 656.506 437.142 658.558 442.228C659.075 443.505 659.57 444.768 660.043 446.019C660.196 446.403 660.343 446.789 660.482 447.17C662.479 452.48 664.122 457.516 665.411 462.278Z" fill="white"/>
<path d="M651.786 426.989C651.404 427.148 651.015 427.309 650.618 427.459C649.538 427.868 648.439 428.223 647.323 428.52C642.57 429.792 637.593 429.981 632.757 429.074C632.592 429.455 632.426 429.835 632.257 430.222C637.357 431.224 642.618 431.047 647.638 429.704C648.829 429.387 650.003 429.007 651.153 428.566C651.545 428.417 651.934 428.256 652.315 428.092C655.465 426.75 658.393 424.937 660.999 422.716C660.658 422.458 660.324 422.205 659.998 421.955C657.523 424.028 654.756 425.725 651.786 426.989Z" fill="white"/>
<path d="M660.043 446.019C659.641 446.151 659.235 446.272 658.827 446.38C658.704 446.419 658.574 446.454 658.449 446.487C653.297 447.859 647.89 447.965 642.689 446.795C637.488 445.625 632.646 443.215 628.577 439.77C628.434 440.183 628.29 440.595 628.153 441.012C632.36 444.474 637.331 446.884 642.654 448.042C647.977 449.2 653.5 449.073 658.765 447.672C658.93 447.628 659.096 447.584 659.26 447.533C659.673 447.417 660.079 447.297 660.483 447.17C666.72 445.163 672.247 441.401 676.403 436.336C676.121 436.037 675.838 435.738 675.55 435.44C671.52 440.4 666.131 444.076 660.043 446.019Z" fill="white"/>
<path d="M665.412 462.278C665.007 462.424 664.599 462.558 664.189 462.686C663.749 462.822 663.308 462.952 662.864 463.07C655.939 464.905 648.607 464.448 641.963 461.767C635.32 459.086 629.724 454.325 626.014 448.197C625.875 448.748 625.734 449.292 625.607 449.84C629.56 455.887 635.318 460.534 642.063 463.122C648.808 465.709 656.197 466.106 663.18 464.255C663.624 464.137 664.066 464.012 664.498 463.872C664.916 463.748 665.324 463.614 665.731 463.474C673.93 460.59 680.727 454.697 684.745 446.99C684.504 446.585 684.247 446.19 683.988 445.79C680.175 453.492 673.512 459.406 665.412 462.278Z" fill="white"/>
<path d="M621.563 32.4795L610.112 50.4833L616.782 27.0456C602.698 12.3503 583.202 1.60022 583.202 1.60022C583.202 1.60022 559.194 41.0562 565.656 65.327C572.117 89.5978 588.802 94.231 606.601 89.4925C624.399 84.7541 636.572 72.4384 630.11 48.1676C628.672 42.7654 625.548 37.462 621.563 32.4795Z" fill="#F2F2F2"/>
<path d="M606.411 52.278L606.73 53.4743C610.361 67.3993 610.904 78.8736 608.336 87.7387C608.301 87.8686 608.259 87.9941 608.223 88.124L607.625 87.9473L607.051 87.7702C609.96 78.161 608.662 66.0187 605.498 53.8721C605.399 53.4797 605.3 53.0813 605.188 52.6861C603.803 47.556 602.107 42.4455 600.26 37.5336C600.12 37.1521 599.973 36.7664 599.826 36.3806C597.355 29.9097 594.655 23.817 592.153 18.5657C591.978 18.1937 591.797 17.8233 591.618 17.4588C587.347 8.58777 583.726 2.30242 582.913 0.914383C582.817 0.743383 582.76 0.65061 582.748 0.62851L583.268 0.318802L583.272 0.311295L583.798 0C583.811 0.02213 584.001 0.332925 584.334 0.916565C585.592 3.09313 588.934 9.02149 592.786 16.9891C592.958 17.3493 593.139 17.7197 593.315 18.0916C595.349 22.3511 597.506 27.1423 599.558 32.228C600.075 33.5046 600.57 34.7682 601.043 36.0186C601.196 36.4028 601.343 36.7886 601.482 37.17C603.479 42.4796 605.122 47.5156 606.411 52.278Z" fill="white"/>
<path d="M592.786 16.9891C592.404 17.1481 592.015 17.3086 591.618 17.4588C590.538 17.8685 589.439 18.2226 588.323 18.5198C583.57 19.7919 578.593 19.9815 573.757 19.0744C573.592 19.4545 573.426 19.8347 573.257 20.2223C578.357 21.2238 583.618 21.0466 588.638 19.7043C589.829 19.3869 591.003 19.0068 592.153 18.5656C592.545 18.4169 592.934 18.2564 593.315 18.0916C596.465 16.7497 599.393 14.9373 601.999 12.7161C601.658 12.4582 601.324 12.2046 600.998 11.9553C598.523 14.0284 595.756 15.7247 592.786 16.9891V16.9891Z" fill="white"/>
<path d="M601.043 36.0186C600.641 36.1511 600.235 36.2717 599.827 36.3805C599.704 36.4195 599.574 36.4543 599.449 36.4874C594.297 37.859 588.89 37.9645 583.689 36.7949C578.488 35.6253 573.646 33.2153 569.577 29.7704C569.434 30.1828 569.29 30.5954 569.153 31.0122C573.36 34.474 578.331 36.8838 583.654 38.0419C588.977 39.2001 594.5 39.0732 599.765 37.6719C599.93 37.6277 600.096 37.5836 600.26 37.5335C600.673 37.4172 601.079 37.2966 601.483 37.17C607.72 35.1626 613.247 31.4012 617.403 26.3356C617.121 26.0367 616.838 25.7377 616.55 25.4403C612.52 30.4001 607.131 34.0765 601.043 36.0186V36.0186Z" fill="white"/>
<path d="M606.412 52.2779C606.007 52.4238 605.599 52.5579 605.189 52.686C604.749 52.822 604.308 52.9522 603.864 53.0704C596.939 54.9054 589.607 54.4481 582.963 51.7668C576.32 49.0855 570.724 44.3246 567.014 38.1969C566.875 38.7476 566.734 39.2924 566.607 39.8399C570.56 45.8867 576.318 50.5341 583.063 53.1218C589.808 55.7095 597.197 56.106 604.18 54.2549C604.624 54.1367 605.066 54.0125 605.498 53.8721C605.916 53.7483 606.324 53.6143 606.731 53.4743C614.93 50.5898 621.727 44.6973 625.745 36.9897C625.504 36.5846 625.247 36.1901 624.988 35.7897C621.175 43.4921 614.512 49.4064 606.412 52.2779V52.2779Z" fill="white"/>
<path d="M306.658 472.7L285.321 472.797L308.645 465.74C313.397 445.949 311.903 423.735 311.903 423.735C311.903 423.735 265.731 424.863 248.803 443.418C231.876 461.973 236.996 478.515 250.603 490.928C264.21 503.342 281.151 506.926 298.079 488.371C301.846 484.241 304.62 478.746 306.658 472.7Z" fill="#F2F2F2"/>
<path d="M281.811 470.654L280.977 471.569C271.224 482.15 261.864 488.81 253.017 491.441C252.889 491.481 252.76 491.513 252.632 491.554L252.457 490.955L252.296 490.376C261.953 487.63 271.467 479.974 279.976 470.747C280.253 470.452 280.534 470.153 280.807 469.846C284.374 465.908 287.757 461.718 290.891 457.509C291.137 457.186 291.382 456.853 291.627 456.521C295.735 450.944 299.402 445.379 302.468 440.436C302.686 440.088 302.9 439.735 303.109 439.387C308.265 430.999 311.596 424.556 312.324 423.121C312.416 422.948 312.463 422.85 312.475 422.828L313.017 423.098L313.026 423.098L313.572 423.372C313.56 423.394 313.401 423.723 313.09 424.318C311.939 426.553 308.757 432.569 304.136 440.117C303.926 440.456 303.712 440.809 303.494 441.157C301.01 445.171 298.145 449.576 294.975 454.051C294.181 455.176 293.385 456.276 292.589 457.349C292.348 457.685 292.103 458.018 291.858 458.341C288.47 462.891 285.121 466.996 281.811 470.654Z" fill="white"/>
<path d="M304.136 440.117C303.795 439.881 303.45 439.641 303.109 439.387C302.181 438.701 301.288 437.967 300.435 437.189C296.796 433.878 293.946 429.792 292.095 425.234C291.686 425.3 291.277 425.367 290.859 425.434C292.773 430.265 295.766 434.596 299.609 438.095C300.52 438.925 301.474 439.707 302.467 440.436C302.804 440.686 303.149 440.926 303.493 441.157C306.325 443.082 309.433 444.566 312.71 445.558C312.743 445.132 312.776 444.714 312.809 444.305C309.727 443.343 306.805 441.932 304.136 440.117Z" fill="white"/>
<path d="M292.589 457.349C292.26 457.082 291.939 456.806 291.627 456.521C291.527 456.439 291.428 456.348 291.333 456.261C287.394 452.668 284.383 448.176 282.555 443.168C280.728 438.159 280.139 432.784 280.838 427.498C280.413 427.6 279.988 427.702 279.564 427.813C278.925 433.223 279.584 438.708 281.487 443.812C283.39 448.917 286.482 453.495 290.507 457.167C290.633 457.282 290.76 457.398 290.891 457.509C291.212 457.794 291.533 458.07 291.858 458.341C296.918 462.504 303.07 465.121 309.578 465.879C309.677 465.48 309.776 465.081 309.87 464.677C303.519 463.968 297.513 461.421 292.589 457.349V457.349Z" fill="white"/>
<path d="M281.811 470.654C281.469 470.392 281.136 470.121 280.806 469.846C280.454 469.549 280.106 469.249 279.767 468.939C274.48 464.105 270.901 457.688 269.566 450.65C268.232 443.611 269.212 436.33 272.362 429.896C271.824 430.077 271.29 430.253 270.76 430.442C267.81 437.036 267.012 444.392 268.48 451.466C269.949 458.539 273.609 464.97 278.941 469.844C279.28 470.154 279.624 470.459 279.976 470.747C280.305 471.031 280.639 471.302 280.976 471.569C287.835 476.908 296.466 479.442 305.123 478.656C305.333 478.234 305.526 477.805 305.723 477.37C297.182 478.326 288.605 475.917 281.811 470.654Z" fill="white"/>
<path d="M235.821 489.442L248.081 489.441L253.913 442.153L235.819 442.154L235.821 489.442Z" fill="#FFB6B6"/>
<path d="M232.694 485.439L256.838 485.438H256.839C260.92 485.438 264.833 487.059 267.719 489.945C270.604 492.83 272.226 496.744 272.226 500.824V501.324L232.695 501.326L232.694 485.439Z" fill="#2F2E41"/>
<path d="M138.821 489.442L151.081 489.441L156.913 442.153L138.819 442.154L138.821 489.442Z" fill="#FFB6B6"/>
<path d="M135.694 485.439L159.838 485.438H159.839C163.92 485.438 167.833 487.059 170.719 489.945C173.604 492.83 175.226 496.744 175.226 500.824V501.324L135.695 501.326L135.694 485.439Z" fill="#2F2E41"/>
<path d="M159.613 295.2L151.35 302.805L142.037 394.681L135.768 467.838L154.713 470.393L200.665 345.394L234.288 469.8L256.956 470.393L241.911 308L159.613 295.2Z" fill="#2F2E41"/>
<path d="M199.544 159.346C212.543 159.346 223.08 148.808 223.08 135.809C223.08 122.811 212.543 112.273 199.544 112.273C186.545 112.273 176.008 122.811 176.008 135.809C176.008 148.808 186.545 159.346 199.544 159.346Z" fill="#FFB9B9"/>
<path d="M187.499 124.881C187.499 124.881 184.693 130.953 195.917 128.524C195.917 128.524 200.126 130.953 200.126 127.31C200.126 127.31 205.738 133.382 207.141 129.739C208.544 126.095 211.35 130.953 211.35 130.953L214.156 124.881L216.962 128.525H226.783C226.783 128.525 229.589 104.234 195.917 106.663C162.245 109.092 178.81 147.578 178.81 147.578C178.81 147.578 179.081 140.669 181.887 144.313C184.693 147.957 187.499 124.881 187.499 124.881Z" fill="#2F2E41"/>
<path d="M217.477 167.027L184.288 164.95L154.713 172.795L159.196 249.008L151.351 302.805C151.351 302.805 194.395 329.117 243.254 308.409L238.613 296.2C238.613 296.2 238.454 277.515 234.534 273.858C230.613 270.2 230.926 240.042 230.926 240.042L245.496 184.003L217.477 167.027Z" fill="#3F3D56"/>
<path d="M162.613 175.2L154.713 172.795C154.713 172.795 142.409 173.206 136.011 187.203C129.613 201.2 125.613 221.2 125.613 221.2L166.247 222.67L162.613 175.2Z" fill="#3F3D56"/>
<path d="M256.928 308.806L255.613 226.2L238.058 228.834L241.935 307.097C240.339 308.407 239.164 310.158 238.558 312.132C237.951 314.106 237.939 316.214 238.523 318.195C239.108 320.175 240.262 321.94 241.843 323.268C243.424 324.596 245.362 325.429 247.413 325.663C249.465 325.896 251.54 325.521 253.379 324.582C255.218 323.644 256.74 322.185 257.755 320.387C258.77 318.589 259.233 316.531 259.086 314.472C258.939 312.412 258.188 310.442 256.928 308.806V308.806Z" fill="#FFB9B9"/>
<path d="M235.613 191.2L245.496 184.003C245.496 184.003 264.484 198.854 264.549 231.527L238.058 237.952L223.08 216.409L235.613 191.2Z" fill="#3F3D56"/>
<path d="M768.569 489.395L780.829 489.394L786.661 442.106L768.567 442.107L768.569 489.395Z" fill="#9E616A"/>
<path d="M765.442 485.392L789.586 485.391H789.587C793.668 485.391 797.582 487.012 800.467 489.898C803.352 492.783 804.974 496.696 804.974 500.777V501.277L765.443 501.279L765.442 485.392Z" fill="#2F2E41"/>
<path d="M696.005 478.969L707.694 482.667L727.517 439.34L710.266 433.883L696.005 478.969Z" fill="#9E616A"/>
<path d="M694.23 474.21L717.25 481.491L717.251 481.491C721.142 482.722 724.384 485.448 726.265 489.07C728.146 492.691 728.511 496.911 727.28 500.802L727.13 501.279L689.439 489.357L694.23 474.21Z" fill="#2F2E41"/>
<path d="M723.61 273.425L716.807 292.613L716.614 396.2L697.32 467.123L721.004 473.732L747.165 406.859L755.556 348.12L766.614 407.2L765.092 477.421H789.94L791.816 369.21C792.343 338.82 787.025 308.612 776.153 280.228V280.228L723.61 273.425Z" fill="#2F2E41"/>
<path d="M715.507 195.7H755.672L772.454 212.483L777.468 281.854L716.806 291.615L697.32 225.426L707.932 197.295L715.507 195.7Z" fill="#7149E9"/>
<path d="M701.063 226.088L639.223 202.821L637.613 193.203L676.613 160.203L689.594 169.939L666.066 195.7L707.932 197.295L701.063 226.088Z" fill="#7149E9"/>
<path d="M684.113 173.7C689.636 173.7 694.113 169.223 694.113 163.7C694.113 158.177 689.636 153.7 684.113 153.7C678.59 153.7 674.113 158.177 674.113 163.7C674.113 169.223 678.59 173.7 684.113 173.7Z" fill="#9E616A"/>
<path d="M707.305 176.298L711.824 155.922C713.435 148.686 717.854 142.387 724.108 138.407C730.362 134.427 737.94 133.093 745.177 134.698C752.414 136.303 758.718 140.716 762.704 146.966C766.689 153.217 768.03 160.794 766.432 168.032L761.913 188.408C761.696 189.381 761.103 190.227 760.263 190.762C759.423 191.297 758.405 191.477 757.432 191.263L710.159 180.779C709.187 180.562 708.341 179.969 707.806 179.129C707.271 178.289 707.091 177.271 707.305 176.298V176.298Z" fill="#2F2E41"/>
<path d="M732.729 184.789C744.054 184.789 753.234 175.608 753.234 164.284C753.234 152.96 744.054 143.779 732.729 143.779C721.405 143.779 712.225 152.96 712.225 164.284C712.225 175.608 721.405 184.789 732.729 184.789Z" fill="#9E616A"/>
<path d="M705.003 156.12C706.279 150.395 709.774 145.41 714.721 142.259C719.668 139.108 725.663 138.047 731.391 139.311L735.466 140.215C741.191 141.491 746.176 144.986 749.327 149.933C752.478 154.88 753.538 160.875 752.275 166.603L752.185 167.011L743.572 165.101L742.459 156.224L740.047 164.319L735.597 163.332L735.035 158.853L733.818 162.938L704.912 156.527L705.003 156.12Z" fill="#2F2E41"/>
<path d="M725.707 186.631C725.424 185.994 725.327 185.29 725.427 184.6C725.526 183.91 725.819 183.262 726.271 182.731C732.411 175.475 741.823 161.638 735.873 150.498L735.446 149.697L758.746 154.864L750.988 189.846L728.993 188.886C728.771 188.877 728.549 188.848 728.332 188.8C727.754 188.672 727.215 188.408 726.758 188.031C726.302 187.654 725.942 187.174 725.707 186.631V186.631Z" fill="#2F2E41"/>
<path d="M495.959 207.721H178.644C176.236 207.721 173.85 208.195 171.625 209.117C169.399 210.039 167.377 211.39 165.674 213.093C163.971 214.796 162.62 216.818 161.698 219.044C160.776 221.269 160.302 223.654 160.302 226.063V302.378C160.302 304.787 160.776 307.172 161.698 309.398C162.62 311.623 163.971 313.645 165.674 315.348C167.377 317.052 169.399 318.403 171.625 319.324C173.85 320.246 176.236 320.721 178.644 320.721H183.302V334.508C183.302 335.345 183.55 336.163 184.015 336.858C184.479 337.554 185.14 338.096 185.913 338.416C186.686 338.737 187.537 338.82 188.357 338.657C189.178 338.494 189.931 338.091 190.523 337.499L207.302 320.721H495.959C498.368 320.721 500.753 320.246 502.979 319.324C505.204 318.403 507.226 317.052 508.929 315.348C510.633 313.645 511.984 311.623 512.906 309.398C513.827 307.172 514.302 304.787 514.302 302.378V226.063C514.302 223.654 513.827 221.269 512.906 219.044C511.984 216.818 510.633 214.796 508.929 213.093C507.226 211.39 505.204 210.039 502.979 209.117C500.753 208.195 498.368 207.721 495.959 207.721V207.721Z" fill="#E6E6E6"/>
<path d="M419.645 311.22H178.645C176.3 311.218 174.052 310.285 172.395 308.627C170.737 306.97 169.804 304.722 169.802 302.378V226.063C169.804 223.719 170.737 221.471 172.395 219.814C174.052 218.156 176.3 217.224 178.644 217.221H495.959C498.303 217.223 500.551 218.156 502.209 219.814C503.867 221.471 504.799 223.719 504.802 226.064C504.776 248.641 495.796 270.286 479.832 286.25C463.867 302.215 442.222 311.195 419.645 311.22V311.22Z" fill="white"/>
<path d="M404.635 233.721H270.635C267.321 233.721 264.635 236.407 264.635 239.721V239.721C264.635 243.034 267.321 245.721 270.635 245.721H404.635C407.948 245.721 410.635 243.034 410.635 239.721C410.635 236.407 407.948 233.721 404.635 233.721Z" fill="#7149E9"/>
<path d="M433.135 257.721H242.135C238.821 257.721 236.135 260.407 236.135 263.721V263.721C236.135 267.034 238.821 269.721 242.135 269.721H433.135C436.448 269.721 439.135 267.034 439.135 263.721C439.135 260.407 436.448 257.721 433.135 257.721Z" fill="#E6E6E6"/>
<path d="M433.135 281.721H242.135C238.821 281.721 236.135 284.407 236.135 287.721V287.721C236.135 291.034 238.821 293.721 242.135 293.721H433.135C436.448 293.721 439.135 291.034 439.135 287.721C439.135 284.407 436.448 281.721 433.135 281.721Z" fill="#E6E6E6"/>
<path d="M948.037 260.857H718.566C716.824 260.857 715.1 261.2 713.49 261.867C711.881 262.533 710.419 263.51 709.187 264.742C707.955 265.974 706.978 267.436 706.311 269.046C705.645 270.655 705.302 272.38 705.302 274.122V329.31C705.302 331.052 705.645 332.777 706.311 334.386C706.978 335.995 707.955 337.458 709.187 338.689C710.419 339.921 711.881 340.898 713.49 341.565C715.1 342.232 716.824 342.575 718.566 342.575H721.935V352.545C721.935 353.15 722.114 353.742 722.45 354.245C722.786 354.748 723.264 355.14 723.823 355.371C724.382 355.603 724.997 355.664 725.59 355.546C726.184 355.428 726.729 355.136 727.157 354.708L739.29 342.575H948.037C949.779 342.575 951.504 342.232 953.113 341.565C954.723 340.898 956.185 339.921 957.417 338.69C958.648 337.458 959.625 335.995 960.292 334.386C960.959 332.777 961.302 331.052 961.302 329.31V274.122C961.302 272.38 960.959 270.655 960.292 269.046C959.625 267.436 958.648 265.974 957.417 264.742C956.185 263.51 954.723 262.533 953.113 261.867C951.504 261.2 949.779 260.857 948.037 260.857V260.857Z" fill="#E6E6E6"/>
<path d="M948.037 335.843H718.566C716.834 335.841 715.174 335.152 713.949 333.928C712.724 332.703 712.035 331.042 712.033 329.31V274.122C712.035 272.389 712.724 270.729 713.949 269.504C715.174 268.279 716.834 267.59 718.566 267.588H892.85C909.213 267.607 924.902 274.116 936.473 285.687C948.043 297.258 954.552 312.946 954.57 329.31C954.568 331.042 953.879 332.703 952.655 333.928C951.43 335.152 949.769 335.841 948.037 335.843V335.843Z" fill="white"/>
<path d="M881.995 279.659H785.091C782.695 279.659 780.752 281.602 780.752 283.998C780.752 286.395 782.695 288.337 785.091 288.337H881.995C884.391 288.337 886.334 286.395 886.334 283.998C886.334 281.602 884.391 279.659 881.995 279.659Z" fill="#7149E9"/>
<path d="M902.605 297.015H764.481C762.084 297.015 760.142 298.958 760.142 301.354C760.142 303.751 762.084 305.693 764.481 305.693H902.605C905.001 305.693 906.944 303.751 906.944 301.354C906.944 298.958 905.001 297.015 902.605 297.015Z" fill="#E6E6E6"/>
<path d="M902.605 314.371H764.481C762.084 314.371 760.142 316.314 760.142 318.71C760.142 321.107 762.084 323.049 764.481 323.049H902.605C905.001 323.049 906.944 321.107 906.944 318.71C906.944 316.314 905.001 314.371 902.605 314.371Z" fill="#E6E6E6"/>
<path d="M458.566 66.8571H688.037C689.779 66.8571 691.504 67.2002 693.113 67.8668C694.723 68.5334 696.185 69.5105 697.417 70.7422C698.648 71.9739 699.625 73.4362 700.292 75.0456C700.959 76.6549 701.302 78.3798 701.302 80.1217V135.31C701.302 137.052 700.959 138.777 700.292 140.386C699.625 141.995 698.648 143.458 697.417 144.689C696.185 145.921 694.723 146.898 693.113 147.565C691.504 148.232 689.779 148.575 688.037 148.575H684.669V158.545C684.669 159.15 684.49 159.742 684.153 160.245C683.817 160.748 683.339 161.14 682.781 161.371C682.222 161.603 681.606 161.664 681.013 161.546C680.42 161.428 679.875 161.136 679.447 160.708L667.313 148.575H458.566C456.824 148.575 455.1 148.232 453.49 147.565C451.881 146.898 450.419 145.921 449.187 144.69C447.955 143.458 446.978 141.995 446.311 140.386C445.645 138.777 445.302 137.052 445.302 135.31V80.1217C445.302 78.3798 445.645 76.6549 446.311 75.0456C446.978 73.4362 447.955 71.9739 449.187 70.7422C450.419 69.5105 451.881 68.5334 453.49 67.8668C455.1 67.2001 456.824 66.8571 458.566 66.8571V66.8571Z" fill="#E6E6E6"/>
<path d="M688.037 141.843H513.755C497.391 141.824 481.703 135.316 470.132 123.745C458.561 112.174 452.052 96.486 452.033 80.1222C452.035 78.39 452.724 76.7293 453.949 75.5045C455.174 74.2796 456.834 73.5905 458.566 73.5885H688.037C689.769 73.5904 691.43 74.2794 692.655 75.5042C693.879 76.7289 694.568 78.3896 694.57 80.1217V135.31C694.568 137.042 693.879 138.702 692.655 139.927C691.43 141.152 689.769 141.841 688.037 141.843Z" fill="white"/>
<path d="M524.609 94.3373L621.513 94.3373C623.909 94.3373 625.852 92.3946 625.852 89.9983C625.852 87.6019 623.909 85.6593 621.513 85.6593L524.609 85.6593C522.212 85.6593 520.27 87.6019 520.27 89.9983C520.27 92.3946 522.212 94.3373 524.609 94.3373Z" fill="#7149E9"/>
<path d="M503.999 111.693L642.123 111.693C644.519 111.693 646.462 109.751 646.462 107.354C646.462 104.958 644.519 103.015 642.123 103.015L503.999 103.015C501.602 103.015 499.66 104.958 499.66 107.354C499.66 109.751 501.602 111.693 503.999 111.693Z" fill="#E6E6E6"/>
<path d="M503.999 129.049L642.123 129.049C644.519 129.049 646.462 127.107 646.462 124.71C646.462 122.314 644.519 120.371 642.123 120.371L503.999 120.371C501.602 120.371 499.66 122.314 499.66 124.71C499.66 127.107 501.602 129.049 503.999 129.049Z" fill="#E6E6E6"/>
<path d="M194.113 206.2C194.113 203.415 193.007 200.745 191.038 198.776C189.068 196.806 186.398 195.7 183.613 195.7C180.828 195.7 178.157 196.806 176.188 198.776C174.219 200.745 173.113 203.415 173.113 206.2C173.113 206.303 173.125 206.402 173.128 206.504L154.713 224.919L156.113 221.7L135.113 220.7L132.049 242.872C131.781 244.919 132.155 246.999 133.119 248.824C134.083 250.65 135.59 252.131 137.432 253.063C139.274 253.995 141.36 254.333 143.402 254.029C145.444 253.725 147.341 252.794 148.831 251.366L185.132 216.578C187.625 216.215 189.905 214.967 191.554 213.061C193.203 211.156 194.112 208.72 194.113 206.2Z" fill="#FFB9B9"/>
<path d="M754.074 196.12L819.488 205.421L823.145 214.461L792.231 255.134L777.448 248.445L794.828 218.194L753.613 225.718L754.074 196.12Z" fill="#7149E9"/>
<path d="M783.113 266.7C788.636 266.7 793.113 262.223 793.113 256.7C793.113 251.177 788.636 246.7 783.113 246.7C777.59 246.7 773.113 251.177 773.113 256.7C773.113 262.223 777.59 266.7 783.113 266.7Z" fill="#9E616A"/>
</g>
<defs>
<clipPath id="clip0_604_2">
<rect width="983.675" height="502.497" fill="white"/>
</clipPath>
</defs>
</svg>
